<svg width="524" height="210" viewBox="0 0 524 210" fill="none" xmlns="http://www.w3.org/2000/svg">
<rect width="523.158" height="210" rx="50" fill="#6366F1"/>
<rect x="175.614" y="17.193" width="329.123" height="175.614" rx="50" fill="white"/>
<path d="M41.5852 148V60.7273H99.3693V75.9403H60.0369V96.7358H95.5341V111.949H60.0369V148H41.5852ZM146.838 60.7273V148H128.386V78.2415H127.875L107.889 90.7699V74.4062L129.494 60.7273H146.838Z" fill="white"/>
<path d="M232.969 145.859C228.542 145.859 224.518 144.714 220.898 142.422C217.279 140.13 214.388 136.693 212.227 132.109C210.065 127.526 208.984 121.836 208.984 115.039C208.984 107.982 210.104 102.174 212.344 97.6172C214.583 93.0599 217.513 89.6875 221.133 87.5C224.779 85.3125 228.698 84.2188 232.891 84.2188C236.042 84.2188 238.737 84.7656 240.977 85.8594C243.216 86.9271 245.065 88.3073 246.523 90C247.982 91.6927 249.089 93.4505 249.844 95.2734H250.234V65H269.336V145H250.43V135.273H249.844C249.036 137.122 247.891 138.854 246.406 140.469C244.922 142.083 243.06 143.385 240.82 144.375C238.607 145.365 235.99 145.859 232.969 145.859ZM239.609 130.977C241.927 130.977 243.906 130.326 245.547 129.023C247.188 127.695 248.451 125.833 249.336 123.437C250.221 121.042 250.664 118.229 250.664 115C250.664 111.719 250.221 108.893 249.336 106.523C248.477 104.154 247.214 102.331 245.547 101.055C243.906 99.7786 241.927 99.1406 239.609 99.1406C237.24 99.1406 235.234 99.7917 233.594 101.094C231.953 102.396 230.703 104.232 229.844 106.602C229.01 108.971 228.594 111.771 228.594 115C228.594 118.229 229.023 121.042 229.883 123.437C230.742 125.833 231.979 127.695 233.594 129.023C235.234 130.326 237.24 130.977 239.609 130.977ZM298.33 146.016C294.502 146.016 291.104 145.378 288.135 144.102C285.192 142.799 282.861 140.846 281.143 138.242C279.45 135.612 278.604 132.318 278.604 128.359C278.604 125.026 279.189 122.214 280.361 119.922C281.533 117.63 283.148 115.768 285.205 114.336C287.262 112.904 289.632 111.823 292.314 111.094C294.997 110.339 297.861 109.831 300.908 109.57C304.32 109.258 307.067 108.932 309.15 108.594C311.234 108.229 312.744 107.721 313.682 107.07C314.645 106.393 315.127 105.443 315.127 104.219V104.023C315.127 102.018 314.437 100.469 313.057 99.375C311.676 98.2812 309.814 97.7344 307.471 97.7344C304.945 97.7344 302.913 98.2812 301.377 99.375C299.84 100.469 298.864 101.979 298.447 103.906L280.83 103.281C281.351 99.6354 282.692 96.3802 284.854 93.5156C287.041 90.625 290.036 88.3594 293.838 86.7187C297.666 85.0521 302.262 84.2188 307.627 84.2188C311.455 84.2188 314.984 84.6745 318.213 85.5859C321.442 86.4714 324.255 87.7734 326.65 89.4922C329.046 91.1849 330.895 93.2682 332.197 95.7422C333.525 98.2161 334.189 101.042 334.189 104.219V145H316.221V136.641H315.752C314.684 138.672 313.317 140.391 311.65 141.797C310.01 143.203 308.07 144.258 305.83 144.961C303.617 145.664 301.117 146.016 298.33 146.016ZM304.229 133.516C306.286 133.516 308.135 133.099 309.775 132.266C311.442 131.432 312.77 130.286 313.76 128.828C314.749 127.344 315.244 125.625 315.244 123.672V117.969C314.697 118.255 314.033 118.516 313.252 118.75C312.497 118.984 311.663 119.206 310.752 119.414C309.84 119.622 308.903 119.805 307.939 119.961C306.976 120.117 306.051 120.26 305.166 120.391C303.369 120.677 301.833 121.12 300.557 121.719C299.307 122.318 298.343 123.099 297.666 124.062C297.015 125 296.689 126.12 296.689 127.422C296.689 129.401 297.393 130.911 298.799 131.953C300.231 132.995 302.041 133.516 304.229 133.516ZM398.252 103.32L380.713 103.789C380.531 102.539 380.036 101.432 379.229 100.469C378.421 99.4792 377.367 98.7109 376.064 98.1641C374.788 97.5911 373.304 97.3047 371.611 97.3047C369.398 97.3047 367.51 97.7474 365.947 98.6328C364.411 99.5182 363.656 100.716 363.682 102.227C363.656 103.398 364.124 104.414 365.088 105.273C366.077 106.133 367.835 106.823 370.361 107.344L381.924 109.531C387.913 110.677 392.367 112.578 395.283 115.234C398.226 117.891 399.71 121.406 399.736 125.781C399.71 129.896 398.486 133.477 396.064 136.523C393.669 139.57 390.387 141.94 386.221 143.633C382.054 145.299 377.288 146.133 371.924 146.133C363.356 146.133 356.598 144.375 351.65 140.859C346.729 137.318 343.916 132.578 343.213 126.641L362.08 126.172C362.497 128.359 363.577 130.026 365.322 131.172C367.067 132.318 369.294 132.891 372.002 132.891C374.45 132.891 376.442 132.435 377.979 131.523C379.515 130.612 380.296 129.401 380.322 127.891C380.296 126.536 379.697 125.456 378.525 124.648C377.354 123.815 375.518 123.164 373.018 122.695L362.549 120.703C356.533 119.609 352.054 117.591 349.111 114.648C346.169 111.68 344.71 107.904 344.736 103.32C344.71 99.3099 345.778 95.8854 347.939 93.0469C350.101 90.1823 353.174 87.9948 357.158 86.4844C361.143 84.974 365.843 84.2188 371.26 84.2188C379.385 84.2188 385.791 85.9245 390.479 89.3359C395.166 92.7214 397.757 97.3828 398.252 103.32ZM428.242 110.781V145H409.141V65H427.617V96.0156H428.281C429.635 92.3177 431.849 89.4271 434.922 87.3437C438.021 85.2604 441.81 84.2188 446.289 84.2188C450.508 84.2188 454.18 85.1563 457.305 87.0313C460.43 88.8802 462.852 91.4974 464.57 94.8828C466.315 98.2682 467.174 102.227 467.148 106.758V145H448.047V110.508C448.073 107.174 447.24 104.57 445.547 102.695C443.854 100.82 441.471 99.8828 438.398 99.8828C436.393 99.8828 434.622 100.326 433.086 101.211C431.576 102.07 430.391 103.307 429.531 104.922C428.698 106.536 428.268 108.49 428.242 110.781Z" fill="#6366F1"/>
</svg>
