<svg width="518" height="196" viewBox="0 0 518 196" fill="none" xmlns="http://www.w3.org/2000/svg">
<rect width="518" height="196" rx="50" fill="#6366F1"/>
<path d="M54.7323 76.42C54.7323 62.62 61.4523 55.3 76.5723 55.3H89.6523V68.74H79.4523C75.3723 68.74 72.7323 71.62 72.7323 76.42V79.54H88.6923V92.98H72.7323V140.5H54.7323V92.98H45.3723V79.54H54.7323V76.42ZM102.401 71.14C113.081 71.14 118.121 66.1 118.241 55.3H132.521V140.5H114.281V84.46H95.8014V71.14H102.401Z" fill="white"/>
<rect x="185" y="20" width="313" height="156" rx="50" fill="white"/>
<path d="M269.68 58.9V137H251.42L251.09 128.53C247.79 134.69 241.41 138.32 233.6 138.32C218.42 138.32 208.96 126.55 208.96 107.85C208.96 89.15 218.42 77.38 233.6 77.38C240.97 77.38 247.24 80.9 250.76 86.95V58.9H269.68ZM228.32 107.85C228.32 117.86 233.16 124.46 239.98 124.46C247.13 124.46 251.75 117.86 251.75 107.85C251.75 97.62 247.13 91.02 239.98 91.02C232.94 91.02 228.32 97.62 228.32 107.85ZM281.386 97.07C283.586 84.2 293.266 77.38 309.546 77.38C328.246 77.38 337.486 85.96 337.486 103.01V119.73C337.486 123.91 339.136 124.68 341.116 124.68H343.206V137L340.676 137.22C337.596 137.33 324.176 139.42 322.086 128.2C319.006 134.47 312.406 138.32 301.296 138.32C289.416 138.32 280.396 131.94 280.396 121.6C280.396 111.26 288.206 106.75 302.616 103.89L318.236 100.7C318.236 92.56 315.486 88.82 309.436 88.82C304.376 88.82 301.296 91.9 300.196 97.84L281.386 97.07ZM299.866 120.83C299.866 124.24 302.616 126.77 307.786 126.77C314.166 126.77 318.566 121.82 318.566 112.36V111.59L310.316 113.13C304.046 114.34 299.866 115.66 299.866 120.83ZM387.203 97.95C386.433 92.78 382.363 89.7 377.853 89.7C373.233 89.7 369.823 92.12 370.153 95.97C370.373 99.71 374.443 101.47 379.723 102.35C398.313 105.1 406.233 109.94 406.233 120.61C406.233 132.38 395.563 138.32 379.393 138.32C361.243 138.32 350.243 130.95 349.253 118.41L368.283 117.64C369.163 122.81 372.903 125.78 378.733 125.78C382.693 125.78 386.983 124.13 386.763 120.5C386.763 116.21 382.033 115.11 376.753 114.01C358.603 110.71 350.683 106.31 350.683 95.86C350.683 84.2 360.583 77.27 378.403 77.27C394.023 77.27 404.033 84.64 406.013 97.29L387.203 97.95ZM415.704 58.9H434.624V85.85C438.034 79.58 444.084 77.38 451.014 77.38C463.224 77.38 470.594 86.4 470.594 99.49V137H451.674V106.2C451.674 97.29 450.024 92.34 443.754 92.34C437.594 92.34 434.624 97.4 434.624 106.2V137H415.704V58.9Z" fill="#6366F1"/>
</svg>
