<svg width="172" height="172" viewBox="0 0 172 172" fill="none" xmlns="http://www.w3.org/2000/svg">
<circle cx="86" cy="86" r="86" fill="black"/>
<path d="M70 19C40.6787 26.58 19 53.4792 19 85.5C19 117.521 40.6787 144.42 70 152" stroke="#52525B" stroke-width="20"/>
<path d="M101 152C130.321 144.42 152 117.521 152 85.5C152 53.4792 130.321 26.58 101 19" stroke="#52525B" stroke-width="20"/>
<path d="M77.3409 97.1875V96.0227C77.3409 92.803 77.6061 90.2367 78.1364 88.3239C78.6856 86.411 79.4811 84.8769 80.5227 83.7216C81.5644 82.5473 82.8333 81.4773 84.3295 80.5114C85.5227 79.7538 86.5833 78.9867 87.5114 78.2102C88.4583 77.4148 89.2064 76.5625 89.7557 75.6534C90.3049 74.7443 90.5795 73.7121 90.5795 72.5568C90.5795 71.4394 90.3144 70.4545 89.7841 69.6023C89.2538 68.75 88.5246 68.0966 87.5966 67.642C86.6875 67.1686 85.6742 66.9318 84.5568 66.9318C83.4394 66.9318 82.3883 67.1875 81.4034 67.6989C80.4375 68.2102 79.642 68.9394 79.017 69.8864C78.411 70.8144 78.0985 71.9413 78.0795 73.267H65.0114C65.0682 69.2898 65.9867 66.0322 67.767 63.4943C69.5663 60.9564 71.9432 59.0814 74.8977 57.8693C77.8523 56.6383 81.1098 56.0227 84.6705 56.0227C88.572 56.0227 92.0379 56.6288 95.0682 57.8409C98.1174 59.053 100.513 60.8428 102.256 63.2102C103.998 65.5776 104.869 68.4754 104.869 71.9034C104.869 74.1572 104.491 76.1458 103.733 77.8693C102.975 79.5928 101.915 81.1174 100.551 82.4432C99.2064 83.75 97.625 84.9432 95.8068 86.0227C94.3864 86.8561 93.2027 87.7273 92.2557 88.6364C91.3277 89.5455 90.6269 90.5871 90.1534 91.7614C89.6799 92.9167 89.4432 94.3371 89.4432 96.0227V97.1875H77.3409ZM83.6193 115.824C81.5739 115.824 79.822 115.104 78.3636 113.665C76.9242 112.225 76.214 110.483 76.233 108.438C76.214 106.43 76.9242 104.716 78.3636 103.295C79.822 101.856 81.5739 101.136 83.6193 101.136C85.5701 101.136 87.2841 101.856 88.7614 103.295C90.2386 104.716 90.9867 106.43 91.0057 108.438C90.9867 109.801 90.6269 111.042 89.9261 112.159C89.2443 113.277 88.3447 114.167 87.2273 114.83C86.1288 115.492 84.9261 115.824 83.6193 115.824Z" fill="#52525B"/>
</svg>
