<svg width="126" height="126" viewBox="0 0 126 126" fill="none" xmlns="http://www.w3.org/2000/svg">
<path d="M27 76.5C27 76.5 31.5 72 45 72C58.5 72 67.5 81 81 81C94.5 81 99 76.5 99 76.5V22.5C99 22.5 94.5 27 81 27C67.5 27 58.5 18 45 18C31.5 18 27 22.5 27 22.5V76.5Z" fill="white" stroke="black" stroke-width="8" stroke-linecap="round" stroke-linejoin="round"/>
<path d="M27 108V76.5" stroke="black" stroke-width="8" stroke-linecap="round" stroke-linejoin="round"/>
<path d="M81 54.2286C94.5 54.2286 99 50.1143 99 50.1143V78H70L59.5 72.9714H27V50.1143C27 50.1143 31.5 46 45 46C58.5 46 67.5 54.2286 81 54.2286Z" fill="black" stroke="black" stroke-linecap="round" stroke-linejoin="round"/>
</svg>
