<svg width="126" height="126" viewBox="0 0 126 126" fill="none" xmlns="http://www.w3.org/2000/svg">
<path d="M27 76.5C27 76.5 31.5 72 45 72C58.5 72 67.5 81 81 81C94.5 81 99 76.5 99 76.5V22.5C99 22.5 94.5 27 81 27C67.5 27 58.5 18 45 18C31.5 18 27 22.5 27 22.5V76.5Z" fill="white" stroke="black" stroke-width="8" stroke-linecap="round" stroke-linejoin="round"/>
<path d="M46 30C43.7588 30 41.7657 30.124 40 30.3309V21.3309C41.7657 21.124 43.7588 21 46 21C47.0246 21 48.0233 21.0518 49 21.1477V30.1477C48.0233 30.0518 47.0246 30 46 30Z" fill="black"/>
<path d="M67 35.6849C63.9998 34.5299 61.0556 33.2627 58 32.2184V23.2184C61.0556 24.2627 63.9998 25.5299 67 26.6849V35.6849Z" fill="black"/>
<path d="M82 39C79.9026 39 77.9139 38.7828 76 38.4158V29.4158C77.9139 29.7828 79.9026 30 82 30C83.0542 30 84.0534 29.9726 85 29.922V38.922C84.0534 38.9726 83.0542 39 82 39Z" fill="black"/>
<path d="M46 30C43.7588 30 41.7657 30.124 40 30.3309V21.3309C41.7657 21.124 43.7588 21 46 21C47.0246 21 48.0233 21.0518 49 21.1477V30.1477C48.0233 30.0518 47.0246 30 46 30Z" stroke="black" stroke-linecap="round" stroke-linejoin="round"/>
<path d="M67 35.6849C63.9998 34.5299 61.0556 33.2627 58 32.2184V23.2184C61.0556 24.2627 63.9998 25.5299 67 26.6849V35.6849Z" stroke="black" stroke-linecap="round" stroke-linejoin="round"/>
<path d="M82 39C79.9026 39 77.9139 38.7828 76 38.4158V29.4158C77.9139 29.7828 79.9026 30 82 30C83.0542 30 84.0534 29.9726 85 29.922V38.922C84.0534 38.9726 83.0542 39 82 39Z" stroke="black" stroke-linecap="round" stroke-linejoin="round"/>
<path d="M46 49C43.7588 49 41.7657 49.124 40 49.3309V40.3309C41.7657 40.124 43.7588 40 46 40C47.0246 40 48.0233 40.0518 49 40.1477V49.1477C48.0233 49.0518 47.0246 49 46 49Z" fill="black"/>
<path d="M67 54.6849C63.9998 53.5299 61.0556 52.2627 58 51.2184V42.2184C61.0556 43.2627 63.9998 44.5299 67 45.6849V54.6849Z" fill="black"/>
<path d="M82 58C79.9026 58 77.9139 57.7828 76 57.4158V48.4158C77.9139 48.7828 79.9026 49 82 49C83.0542 49 84.0534 48.9726 85 48.922V57.922C84.0534 57.9726 83.0542 58 82 58Z" fill="black"/>
<path d="M46 49C43.7588 49 41.7657 49.124 40 49.3309V40.3309C41.7657 40.124 43.7588 40 46 40C47.0246 40 48.0233 40.0518 49 40.1477V49.1477C48.0233 49.0518 47.0246 49 46 49Z" stroke="black" stroke-linecap="round" stroke-linejoin="round"/>
<path d="M67 54.6849C63.9998 53.5299 61.0556 52.2627 58 51.2184V42.2184C61.0556 43.2627 63.9998 44.5299 67 45.6849V54.6849Z" stroke="black" stroke-linecap="round" stroke-linejoin="round"/>
<path d="M82 58C79.9026 58 77.9139 57.7828 76 57.4158V48.4158C77.9139 48.7828 79.9026 49 82 49C83.0542 49 84.0534 48.9726 85 48.922V57.922C84.0534 57.9726 83.0542 58 82 58Z" stroke="black" stroke-linecap="round" stroke-linejoin="round"/>
<path d="M46 69C43.7588 69 41.7657 69.124 40 69.3309V60.3309C41.7657 60.124 43.7588 60 46 60C47.0246 60 48.0233 60.0518 49 60.1477V69.1477C48.0233 69.0518 47.0246 69 46 69Z" fill="black"/>
<path d="M67 74.6849C63.9998 73.5299 61.0556 72.2627 58 71.2184V62.2184C61.0556 63.2627 63.9998 64.5299 67 65.6849V74.6849Z" fill="black"/>
<path d="M82 78C79.9026 78 77.9139 77.7828 76 77.4158V68.4158C77.9139 68.7828 79.9026 69 82 69C83.0542 69 84.0534 68.9726 85 68.922V77.922C84.0534 77.9726 83.0542 78 82 78Z" fill="black"/>
<path d="M46 69C43.7588 69 41.7657 69.124 40 69.3309V60.3309C41.7657 60.124 43.7588 60 46 60C47.0246 60 48.0233 60.0518 49 60.1477V69.1477C48.0233 69.0518 47.0246 69 46 69Z" stroke="black" stroke-linecap="round" stroke-linejoin="round"/>
<path d="M67 74.6849C63.9998 73.5299 61.0556 72.2627 58 71.2184V62.2184C61.0556 63.2627 63.9998 64.5299 67 65.6849V74.6849Z" stroke="black" stroke-linecap="round" stroke-linejoin="round"/>
<path d="M82 78C79.9026 78 77.9139 77.7828 76 77.4158V68.4158C77.9139 68.7828 79.9026 69 82 69C83.0542 69 84.0534 68.9726 85 68.922V77.922C84.0534 77.9726 83.0542 78 82 78Z" stroke="black" stroke-linecap="round" stroke-linejoin="round"/>
<path d="M57 31.9932C54.444 31.1197 51.81 30.4021 49 30.0366V41.0366C51.81 41.4021 54.444 42.1197 57 42.9932C57.3346 43.1076 57.6679 43.2246 58 43.3439V32.3439C57.6679 32.2246 57.3346 32.1076 57 31.9932Z" fill="black"/>
<path d="M75 38.1906C72.209 37.6555 69.5772 36.8019 67 35.8393V46.8393C69.5772 47.8019 72.209 48.6555 75 49.1906C75.331 49.2541 75.6643 49.3131 76 49.3673V38.3673C75.6643 38.3131 75.331 38.2541 75 38.1906Z" fill="black"/>
<path d="M89.854 38.007C88.433 38.2796 86.8208 38.4999 85 38.6335V49.6335C86.8208 49.4999 88.433 49.2796 89.854 49.007C91.9773 48.5997 93.6735 48.0756 95 47.5497V36.5497C93.6735 37.0756 91.9773 37.5997 89.854 38.007Z" fill="black"/>
<path d="M40 40.7748V30C30.3639 30.911 27 34.2748 27 34.2748V45.0497C27 45.0497 30.3639 41.6858 40 40.7748Z" fill="black"/>
<path d="M57 31.9932C54.444 31.1197 51.81 30.4021 49 30.0366V41.0366C51.81 41.4021 54.444 42.1197 57 42.9932C57.3346 43.1076 57.6679 43.2246 58 43.3439V32.3439C57.6679 32.2246 57.3346 32.1076 57 31.9932Z" stroke="black" stroke-linecap="round" stroke-linejoin="round"/>
<path d="M75 38.1906C72.209 37.6555 69.5772 36.8019 67 35.8393V46.8393C69.5772 47.8019 72.209 48.6555 75 49.1906C75.331 49.2541 75.6643 49.3131 76 49.3673V38.3673C75.6643 38.3131 75.331 38.2541 75 38.1906Z" stroke="black" stroke-linecap="round" stroke-linejoin="round"/>
<path d="M89.854 38.007C88.433 38.2796 86.8208 38.4999 85 38.6335V49.6335C86.8208 49.4999 88.433 49.2796 89.854 49.007C91.9773 48.5997 93.6735 48.0756 95 47.5497V36.5497C93.6735 37.0756 91.9773 37.5997 89.854 38.007Z" stroke="black" stroke-linecap="round" stroke-linejoin="round"/>
<path d="M40 40.7748V30C30.3639 30.911 27 34.2748 27 34.2748V45.0497C27 45.0497 30.3639 41.6858 40 40.7748Z" stroke="black" stroke-linecap="round" stroke-linejoin="round"/>
<path d="M57 50.9932C54.444 50.1197 51.81 49.4021 49 49.0366V60.0366C51.81 60.4021 54.444 61.1197 57 61.9932C57.3346 62.1076 57.6679 62.2246 58 62.3439V51.3439C57.6679 51.2246 57.3346 51.1076 57 50.9932Z" fill="black"/>
<path d="M75 57.1906C72.209 56.6555 69.5772 55.8019 67 54.8393V65.8393C69.5772 66.8019 72.209 67.6555 75 68.1906C75.331 68.2541 75.6643 68.3131 76 68.3673V57.3673C75.6643 57.3131 75.331 57.2541 75 57.1906Z" fill="black"/>
<path d="M89.854 57.007C88.433 57.2796 86.8208 57.4999 85 57.6335V68.6335C86.8208 68.4999 88.433 68.2796 89.854 68.007C91.9773 67.5997 93.6735 67.0756 95 66.5497V55.5497C93.6735 56.0756 91.9773 56.5997 89.854 57.007Z" fill="black"/>
<path d="M40 59.7748V49C30.3639 49.911 27 53.2748 27 53.2748V64.0497C27 64.0497 30.3639 60.6858 40 59.7748Z" fill="black"/>
<path d="M57 50.9932C54.444 50.1197 51.81 49.4021 49 49.0366V60.0366C51.81 60.4021 54.444 61.1197 57 61.9932C57.3346 62.1076 57.6679 62.2246 58 62.3439V51.3439C57.6679 51.2246 57.3346 51.1076 57 50.9932Z" stroke="black" stroke-linecap="round" stroke-linejoin="round"/>
<path d="M75 57.1906C72.209 56.6555 69.5772 55.8019 67 54.8393V65.8393C69.5772 66.8019 72.209 67.6555 75 68.1906C75.331 68.2541 75.6643 68.3131 76 68.3673V57.3673C75.6643 57.3131 75.331 57.2541 75 57.1906Z" stroke="black" stroke-linecap="round" stroke-linejoin="round"/>
<path d="M89.854 57.007C88.433 57.2796 86.8208 57.4999 85 57.6335V68.6335C86.8208 68.4999 88.433 68.2796 89.854 68.007C91.9773 67.5997 93.6735 67.0756 95 66.5497V55.5497C93.6735 56.0756 91.9773 56.5997 89.854 57.007Z" stroke="black" stroke-linecap="round" stroke-linejoin="round"/>
<path d="M40 59.7748V49C30.3639 49.911 27 53.2748 27 53.2748V64.0497C27 64.0497 30.3639 60.6858 40 59.7748Z" stroke="black" stroke-linecap="round" stroke-linejoin="round"/>
<path d="M27 108V76.5" stroke="black" stroke-width="8" stroke-linecap="round" stroke-linejoin="round"/>
</svg>
