<svg width="126" height="126" viewBox="0 0 126 126" fill="none" xmlns="http://www.w3.org/2000/svg">
<path d="M34 83.875C34 83.875 38.375 79.5 51.5 79.5C64.625 79.5 73.375 88.25 86.5 88.25C99.625 88.25 104 83.875 104 83.875V31.375C104 31.375 99.625 35.75 86.5 35.75C73.375 35.75 64.625 27 51.5 27C38.375 27 34 31.375 34 31.375V83.875Z" fill="#EAB308" stroke="#EAB308" stroke-width="8" stroke-linecap="round" stroke-linejoin="round"/>
<path d="M34 114.5V83.875" stroke="#EAB308" stroke-width="8" stroke-linecap="round" stroke-linejoin="round"/>
<path d="M21 70.5C21 70.5 25.5 66 39 66C52.5 66 61.5 75 75 75C88.5 75 93 70.5 93 70.5V16.5C93 16.5 88.5 21 75 21C61.5 21 52.5 12 39 12C25.5 12 21 16.5 21 16.5V70.5Z" fill="#FBCC1C" stroke="#FBCC1C" stroke-width="8" stroke-linecap="round" stroke-linejoin="round"/>
<path d="M21 102V70.5" stroke="#FBCC1C" stroke-width="8" stroke-linecap="round" stroke-linejoin="round"/>
</svg>
