<svg xmlns="http://www.w3.org/2000/svg" width="400" height="400" viewBox="0 0 325.511 145.551"><path d="M162.754 59.899c-.595 0-1.032.445-1.037.455-.026.021-10.559 10.072-10.559 10.072-3.884 3.749-9.041 2.18-9.592 1.997 0 0-45.023-12.282-45.029-12.286-8.592-2.592-10.299-5.388-11.614-8.784 0 0-.764-2.111-2.634-2.664 0 0-55.037-16.157-55.042-16.157-2.246-.693-3.482-1.327-4.365-3.037 0 0-3.021-5.319-3.031-5.334-.67-1.275-1.884-1.41-1.954-1.42-4.163-.562-5.383-2.883-5.899-3.871l-2.455-4.312c-.768-1.336-1.866-1.449-1.9-1.453-2.367-.15-3.493-.747-4.472-2.354 0 0-2.4-3.992-2.41-4.012-1.18-2.18-.772-3.74-.228-4.666C1.681.174 3.779.03 4.621 0h131.604c3.726 0 6.737 1.129 8.963 3.362 1.599 1.593 2.7 3.672 3.27 6.176.01.059.165.582 1.291.582h26.012c1.127 0 1.281-.522 1.291-.582.57-2.504 1.671-4.583 3.27-6.176C182.548 1.129 185.558 0 189.286 0H320.89c.842.029 2.939.174 4.086 2.072.545.926.952 2.486-.228 4.666-.01.02-2.41 4.012-2.41 4.012-.979 1.607-2.104 2.204-4.472 2.354-.033.004-1.133.117-1.9 1.453l-2.455 4.312c-.516.988-1.736 3.309-5.898 3.871-.07.01-1.284.145-1.955 1.42-.01.015-3.03 5.334-3.03 5.334-.883 1.71-2.119 2.345-4.364 3.037-.004 0-55.042 16.157-55.042 16.157-1.87.553-2.634 2.664-2.634 2.664-1.314 3.396-3.021 6.192-11.614 8.784-.005.004-45.029 12.286-45.029 12.286-.551.183-5.708 1.752-9.592-1.997 0 0-10.532-10.052-10.56-10.072-.004-.01-.441-.455-1.036-.455h-.003v.001z" /><path fill="#FFF" d="M179.443 10.072c.461-2.039 1.341-3.711 2.605-4.976 1.75-1.753 4.188-2.645 7.232-2.645h60.457c-2.078 1.555-3.169 3.522-3.242 3.653a98.011 98.011 0 0 1-2.615 4.567h-64.65c.134-.235.214-.599.213-.599zm143.15-4.506l-2.36 3.925c-.441.728-.714 1.057-2.528 1.172l-71.598.01a102.957 102.957 0 0 0 2.064-3.658c.02-.037 2.556-4.557 7.059-4.557l65.59-.006c.688.029 1.582.106 2.055.887.057.105.192.323.192.716 0 .348-.111.843-.474 1.511zm-8.756 7.781l-2.5 4.389c-.341.649-.867 1.652-2.537 2.229-1.396.349-4.174.127-5.136.01l-60.899-4.046c.787-1.167 1.518-2.29 2.182-3.356h69.416c-.182.231-.36.482-.526.774zm-10.353 9.669c.016-.019-2.395 4.226-2.896 5.107-.123.165-.809.91-3.039.614l-58.356-7.828c.8-1.046 1.558-2.084 2.269-3.087l61.99 4.113c.091.011.352.04.725.073a5.217 5.217 0 0 0-.693 1.008zm-20.07 11.327c-2.197.582-6.494-.077-7.986-.387l-40.099-8.242c.878-1.031 1.72-2.053 2.519-3.065l58.604 7.866-13.038 3.828zm-19.877 5.833c-2.82.755-6.5-.466-6.535-.476l-.044-.014s-.005-.005-.01-.005l-26.839-8.279a104.956 104.956 0 0 0 3.785-4.04l41.15 8.458c.09.014.933.188 2.116.354l-13.623 4.002zm-20.966 6.158c-1.905.518-4.714-.582-5.646-1.052 0 0-7.182-3.362-14.557-6.812a98.298 98.298 0 0 0 6.211-5.546l27.833 8.589c.054.02.56.185 1.335.359l-15.176 4.462zm-4.296 4.2c-.811 2.078-1.658 4.219-7.367 6.364-2.357.732-5.16-1.352-5.184-1.375-.01-.01-6.366-4.559-13.604-9.738a94.186 94.186 0 0 0 8.592-5.992l15.379 7.199c.085.043 1.671.844 3.592 1.202-.918 1.046-1.334 2.127-1.408 2.34zm-21.512 10.397l-2.143.581c-1.805.432-4.007-1.356-4.711-2.099 0 0-3.459-3.599-7.904-8.24a89.823 89.823 0 0 0 8.334-4.316l14.254 10.198c.058.048.872.658 2.068 1.177-3.166.862-9.898 2.698-9.898 2.699zm-18.845 5.14c-1.505.237-3.251-2.233-3.757-3.154l-4.299-7.276a88.281 88.281 0 0 0 10.281-3.653l8.385 8.75c.074.073 1.002 1.036 2.348 1.797l-12.958 3.536zm-14.271 3.889c-1.013.233-1.868.131-2.603-.313-1.577-.965-2.102-3.184-2.131-3.314l-2.193-7.912a94.679 94.679 0 0 0 11.24-2.252l4.548 7.699c.156.275 1.079 1.884 2.462 3.008l-11.323 3.084zm-9.249-2.871s-6.098-5.819-8.166-7.787c2.902-.101 5.766-.314 8.578-.644l2.242 8.09c.064.281.512 2.055 1.757 3.465-1.718-.489-2.239-.998-4.411-3.124zm-10.69-9.638V32.803h3.934l6.652 24c-3.462.397-6.99.615-10.586.648zm-12.496-.648l6.656-24h3.935v24.645c-3.603-.03-7.13-.252-10.591-.645zm-1.747 11.85a6.244 6.244 0 0 1-2.769 1.561c1.254-1.415 1.69-3.193 1.756-3.469l2.243-8.076c2.812.324 5.676.537 8.577.634-2.323 2.208-9.807 9.35-9.807 9.35zm-2.872-2.335c0 .024-.517 2.34-2.135 3.329-.734.444-1.586.547-2.599.313l-11.324-3.085c1.383-1.13 2.316-2.738 2.476-3.033-.005.005 1.918-3.246 4.527-7.669a93.52 93.52 0 0 0 11.247 2.247l-2.192 7.898zm-19.006-.247l-12.957-3.537c1.344-.765 2.276-1.729 2.347-1.801 0 0 3.704-3.868 8.384-8.746a89.084 89.084 0 0 0 10.278 3.658l-4.281 7.253c-.521.939-2.267 3.41-3.771 3.173zm-16.705-4.559l-12.039-3.28a10.684 10.684 0 0 0 2.088-1.192c-.01.01 6.726-4.811 14.234-10.182a90.746 90.746 0 0 0 8.339 4.315l-7.909 8.24c-.703.743-2.906 2.531-4.713 2.099zm-16.299-4.613c-5.686-2.146-6.538-4.281-7.346-6.354a7.766 7.766 0 0 0-1.415-2.35 14.879 14.879 0 0 0 3.621-1.217c-.016.005 7.69-3.594 15.354-7.185a92.109 92.109 0 0 0 8.586 5.992L99.8 55.504c-.044.044-2.86 2.137-5.217 1.395zM82.939 46.334c-.574-.171-6.955-2.045-15.18-4.462a13.481 13.481 0 0 0 1.358-.369c-.024.01 22.554-6.956 27.812-8.579a99.17 99.17 0 0 0 6.211 5.542l-14.532 6.802c-.961.484-3.764 1.584-5.669 1.066zM61.984 40.18a16177 16177 0 0 1-13.642-4.006 32.922 32.922 0 0 0 2.124-.359c-.004.006 29.051-5.968 41.15-8.452a113.914 113.914 0 0 0 3.781 4.04l-26.869 8.289c-.061.018-3.725 1.235-6.544.488zm-19.873-5.831a5242.533 5242.533 0 0 0-13.056-3.834l58.612-7.866c.8 1.007 1.638 2.029 2.515 3.062l-40.104 8.246c-1.488.309-5.766.968-7.967.392zm-14.148-5.611c-2.217.296-2.913-.436-3.041-.61l-2.917-5.136a5.033 5.033 0 0 0-.676-.982c.374-.034 62.727-4.187 62.727-4.187a111.38 111.38 0 0 0 2.263 3.086l-58.356 7.829zm-11.252-8.774c-1.672-.576-2.202-1.579-2.544-2.229-1.022-1.738-2.367-4.336-3.028-5.164h69.427a107.399 107.399 0 0 0 2.183 3.356l-60.908 4.046c-.956.118-3.735.34-5.13-.009zm-8.89-9.293c-1.672-.125-2.028-.323-2.554-1.187.006.006-2.182-3.631-2.356-3.918-.363-.668-.483-1.163-.467-1.512.04-.892.647-1.579 2.243-1.604l65.593.006c4.44 0 7.058 4.558 7.058 4.558a100.03 100.03 0 0 0 2.069 3.657H7.821zM136.224 2.45c3.05 0 5.481.892 7.233 2.646 1.265 1.264 2.142 2.936 2.609 4.976 0 0 .094.349.214.6H81.631c-.988-1.622-2.617-4.567-2.617-4.567-.071-.13-1.164-2.098-3.243-3.653l60.453-.002zm93.617 12.626v-2.505h12.854a106.391 106.391 0 0 1-2.133 3.212l-10.721-.707zm0 4.582v-2.605l9.386.62c-.693.963-1.435 1.946-2.208 2.95l-7.178-.965zm0 4.933v-3.014l5.805.78c-.779.965-1.598 1.938-2.451 2.921-1.497-.309-2.651-.542-3.354-.687zm0 1.943l1.895.386a83.755 83.755 0 0 1-1.895 2.031v-2.417zm-19.582 6.269h15.688c-1.599 1.589-5.373 4.664-5.497 4.767-3.814-1.789-7.534-3.523-10.191-4.767zm-16.282 0h11.79l13.004 6.085a92.577 92.577 0 0 1-8.337 5.696c-6.276-4.495-12.888-9.228-16.457-11.781zm-9.592 0h6.325l17.927 12.838a86.937 86.937 0 0 1-8.034 4.069c-5.903-6.152-13.014-13.57-16.218-16.907zm-8.012 0h5.371l16.986 17.712a88 88 0 0 1-9.871 3.43l-12.486-21.142zm-2.213 0l12.796 21.654a91.95 91.95 0 0 1-10.751 2.108l-6.588-23.763h4.543zm-22.814 0h4.543l-6.588 23.763a92.909 92.909 0 0 1-10.751-2.103c4.794-8.109 11.191-18.943 12.796-21.66zm-7.585 0h5.373l-12.487 21.142a86.185 86.185 0 0 1-9.873-3.436c6.811-7.097 15.008-15.643 16.987-17.706zm-8.965 0h6.325L124.909 49.71a87.453 87.453 0 0 1-8.042-4.069c7.78-5.571 15.89-11.38 17.929-12.838zm-29.741 4.767c-.143-.116-3.901-3.274-5.497-4.767h15.686l-10.189 4.767zm14.684-4.767h11.787L115.07 44.58a91.313 91.313 0 0 1-8.334-5.692c6.177-2.893 11.898-5.567 13.003-6.085zm-24.09-6.269v2.397a84.339 84.339 0 0 1-1.875-2.012c.753-.157 1.383-.284 1.875-.385zm0-4.957v3.013l-3.338.688a115.544 115.544 0 0 1-2.445-2.921l5.783-.78zm0-4.524v2.605l-7.158.965a111.826 111.826 0 0 1-2.202-2.95l9.36-.62zm0-1.977l-10.694.707a96.237 96.237 0 0 1-2.135-3.212h12.829v2.505z" /><linearGradient id="a" gradientUnits="userSpaceOnUse" x1="222.792" y1="-.036" x2="243.728" y2="-20.972" gradientTransform="matrix(2.628 0 0 -2.628 -450.263 -5.872)"><stop offset="0" stop-color="#396" /><stop offset="1" stop-color="#004f32" /><stop offset="1" stop-color="#004f32" /></linearGradient><path fill="url(#a)" d="M97.584 30.899l-.028-.029V12.581h130.385v18.298c-.004.01-.01.01-.014.015l-130.343.005z" /><path fill="#FFF" d="M106.219 15.502h-.544l-5.572 12.465h1.509l.024-.072c.451-1.517 1.032-2.97 1.596-4.364l.117-.296h4.309a65.642 65.642 0 0 1 1.817 4.664l.025.068h2.083l-5.364-12.465zm-2.448 6.782c.114-.275 1.576-3.701 1.75-4.107.172.406 1.663 3.832 1.78 4.107h-3.53zM112.183 27.08l.046.048c.658.718 2.142 1.053 2.94 1.053 2.614 0 4.445-1.687 4.445-4.107 0-2.007-1.519-2.598-2.987-3.179-1.304-.519-2.544-.998-2.544-2.48 0-1.125.887-1.938 2.103-1.938.972 0 1.706.513 2.078 1.452l.025.067h.332l.521-1.573-.058-.054c-.71-.64-1.803-.867-2.581-.867-2.437 0-4.009 1.361-4.009 3.474 0 2.151 1.604 2.775 3.016 3.338 1.277.494 2.475.969 2.475 2.447 0 1.371-1.022 2.451-2.324 2.451-1.193 0-1.984-.514-2.755-1.773l-.03-.048h-.332l-.361 1.689zM129.452 15.759h-9.166v1.284l.118-.01a32.81 32.81 0 0 1 3.726-.214v11.187h1.761V16.825c1.245 0 2.434.071 3.546.208l.124.014v-1.288h-.109zM135.767 15.502c-3.888 0-6.608 2.621-6.608 6.366 0 3.778 2.645 6.312 6.574 6.312 4.062 0 6.796-2.646 6.796-6.579.001-4.215-3.398-6.099-6.762-6.099zm3.255 10.503c-.865.915-1.95 1.381-3.241 1.381-2.846 0-4.687-2.082-4.687-5.304 0-3.57 1.86-5.785 4.847-5.785 1.409 0 2.739.62 3.561 1.656.903 1.153 1.087 2.355 1.087 3.794.005.078.01.165.01.248 0 1.171-.477 2.833-1.577 4.01zM154.738 15.759h-1.092v9.035h-.02c-.063-.073-8.34-9.035-8.34-9.035h-.842v12.208h1.201V18.52h.025c.064.073 7.544 8.353 7.544 8.353l.938 1.095H154.847V15.759h-.109zM174.464 15.759h-.432l-2.957 5.362s-1.871 3.411-2.041 3.717c-1.824-3.043-3.467-6.245-4.865-9.021l-.029-.058h-.621l-.01.102c-.174 1.803-1.224 9.151-1.683 11.985l-.024.121h1.48v-.105c0-1.72.305-4.284.629-7.002l.195-1.681c.207.396 2.504 4.758 3.381 6.555l.993 2.045h.332l.028-.068c1.021-2.346 2.463-5.024 4.436-8.551.279 2.103.649 6.303.854 8.71l.011.098h1.87l-.016-.121c-.422-2.961-.883-6.88-1.422-11.985l-.011-.102h-.098v-.001zM182.836 15.502h-.548l-5.574 12.465h1.518l.02-.072c.453-1.531 1.037-2.989 1.604-4.395 0 0 .07-.174.104-.266h4.312a66.046 66.046 0 0 1 1.814 4.664l.024.068h2.085l-5.359-12.464zm-2.451 6.782c.114-.275 1.577-3.701 1.752-4.107l1.78 4.107h-3.532zM193.556 21.936c2.203-.445 3.521-1.7 3.521-3.396 0-1.864-1.309-2.78-4.006-2.78h-3.826v12.208h1.757v-5.852h.513a485.48 485.48 0 0 0 1.367 1.613c-.006-.006 2.069 2.679 2.069 2.679l1.136 1.56h2.301c0-.001-4.623-5.775-4.832-6.032zm-2.554-.697v-4.612c.724-.034 1.847-.082 2.456.016 1.219.197 1.838.909 1.838 2.105 0 1.227-.805 2.122-2.162 2.395-.763.153-1.685.125-2.132.096zM207.24 15.759h-9.17v1.284l.12-.01a32.836 32.836 0 0 1 3.722-.214v11.187h1.77V16.825c1.24 0 2.432.071 3.545.208l.123.014v-1.288h-.11zM208.797 27.967h1.661V15.759h-1.661zM222.25 15.759v9.035h-.015c-.065-.073-8.34-9.035-8.34-9.035h-.844v12.208h1.202V18.52h.021c.064.073 7.554 8.353 7.554 8.353l.938 1.095h.685V15.759h-1.201z" /><path d="M62.708 145.131c-.658-.04-1.218-.107-1.814-.107-.661 0-1.254.067-1.851.107-1.008-2.898-2.267-6.241-3.665-9.414h-8.861c-1.222 3.066-2.48 6.133-3.455 9.414-.49-.04-.872-.107-1.294-.107-.453 0-.838.067-1.221.107l10.889-24.359h.804l10.468 24.359zm221.024 0h-1.053a45.67 45.67 0 0 0-1.811-2.128l-15.082-16.666h-.342v18.793c-.35-.039-.664-.106-.983-.106-.346 0-.663.067-.976.106v-23.841h1.363l16.576 17.949h.352v-17.949c.312.029.624.103.979.103.316 0 .63-.073.976-.103l.001 23.842zm-28.258-23.842c.49.029 1.016.103 1.536.103.488 0 .979-.073 1.534-.103v23.842c-.556-.04-1.047-.107-1.534-.107-.521 0-1.046.067-1.536.107v-23.842zm-11.183 23.909c-.56-.034-1.051-.107-1.543-.107-.52 0-1.041.073-1.531.107v-22.237c-3.521 0-5.649.208-7.648.416.045-.349.109-.697.109-1.042 0-.353-.064-.663-.109-1.046h18.014c-.035.383-.1.693-.1 1.046 0 .345.064.693.1 1.042a61.211 61.211 0 0 0-7.291-.416v22.237h-.001zm-28.275-23.909h7.399c5.379 0 7.75 1.773 7.75 5.296 0 4.04-3.627 5.998-7.154 6.622l7.19 9.098 1.677 1.952.658.874c-.729-.04-1.359-.107-2.023-.107-.66 0-1.357.067-1.995.107a108.353 108.353 0 0 0-2.198-3.039l-4.113-5.328-2.792-3.271h-1.321v11.639c-.562-.04-1.05-.107-1.539-.107-.525 0-1.049.067-1.538.107v-23.843h-.001zm3.077 10.871c.483.034 2.717.175 4.498-.174 2.555-.52 4.469-2.267 4.469-4.981 0-2.407-1.227-3.977-3.84-4.398-1.288-.202-3.669-.101-5.127-.028v9.581zm-5.494 12.971c-.668-.04-1.219-.107-1.82-.107-.66 0-1.254.067-1.84.107-1.018-2.898-2.277-6.241-3.672-9.414h-8.859c-1.226 3.066-2.485 6.133-3.459 9.414-.489-.04-.871-.107-1.289-.107-.453 0-.842.067-1.221.107l10.885-24.359h.803l10.472 24.359zm-11.726-19.796l-3.806 8.918h7.679l-3.873-8.918zm-14.864-4.046c.908 8.604 1.889 17.185 2.826 23.842-.629-.04-1.119-.107-1.639-.107-.562 0-1.117.067-1.639.107-.59-7.011-1.301-14.535-1.787-17.984-4.047 7.214-7.049 12.785-9.143 17.601h-.382l-1.918-3.943c-2.239-4.593-4.681-9.127-7.052-13.657-.769 6.792-1.711 13.69-1.711 17.984-.449-.04-.838-.107-1.216-.107-.454 0-.842.067-1.259.107.903-5.611 2.997-20.185 3.348-23.842h.908c2.793 5.548 6.144 12.092 9.873 18.265 3.324-5.969 6.533-12.023 10.056-18.265h.735v-.001zm-39.329 23.842h-1.053a42.648 42.648 0 0 0-1.81-2.128l-15.081-16.666h-.347v18.793c-.349-.039-.666-.106-.979-.106-.346 0-.658.067-.976.106v-23.841h1.364l16.574 17.949h.353v-17.949c.312.029.625.103.972.103.312 0 .63-.073.983-.103v23.842zm-50.056-11.924c0-7.635 5.685-12.436 12.913-12.436 6.564 0 13.226 3.545 13.226 11.912 0 7.771-5.511 12.867-13.289 12.867-7.714.001-12.85-4.882-12.85-12.343zm20.524-7.912c-1.742-2.193-4.465-3.38-7.265-3.38-6.135 0-9.836 4.636-9.836 11.708 0 7.083 4.325 10.771 9.527 10.771 7.366 0 10.018-7.597 9.771-11.429-.001-2.888-.383-5.334-2.197-7.67zm-27.409 19.903c-.561-.034-1.046-.107-1.537-.107-.526 0-1.052.073-1.534.107v-22.237c-3.527 0-5.66.208-7.645.416.034-.349.104-.697.104-1.042 0-.353-.07-.663-.104-1.046H98.03c-.038.383-.104.693-.104 1.046 0 .345.066.693.104 1.042a61.23 61.23 0 0 0-7.292-.416v22.237h.001zm-25.584-4.777c1.358 2.233 2.926 3.628 5.656 3.628 2.822 0 4.847-2.34 4.847-5.09 0-6.483-10.925-3.62-10.925-11.502 0-4.496 3.561-6.686 7.75-6.686 1.67 0 3.701.518 4.985 1.667-.417.905-.66 1.878-.938 2.857h-.346c-.734-1.885-2.268-3.032-4.327-3.032-2.41 0-4.396 1.607-4.396 4.074 0 6.419 10.99 3.837 10.99 11.264 0 4.985-3.881 7.949-8.623 7.949-1.706 0-4.499-.731-5.686-2.024.344-1.013.521-2.06.661-3.105h.352zm-14.173-15.086l-3.8 8.918h7.674l-3.874-8.918z" /></svg>