<!-- Created with Inkscape (http://www.inkscape.org/) --><svg xmlns:dc="http://purl.org/dc/elements/1.1/" xmlns:cc="http://creativecommons.org/ns#" xmlns:rdf="http://www.w3.org/1999/02/22-rdf-syntax-ns#" xmlns:svg="http://www.w3.org/2000/svg" xmlns="http://www.w3.org/2000/svg" xmlns:sodipodi="http://sodipodi.sourceforge.net/DTD/sodipodi-0.dtd" xmlns:inkscape="http://www.inkscape.org/namespaces/inkscape" version="1.1" width="400" height="400" id="svg2" inkscape:version="0.48.1 " sodipodi:docname="Logo_della_Scuderia_Ferrari_(2010).svg" viewBox="0 0 400 540"><sodipodi:namedview pagecolor="#ffffff" bordercolor="#666666" borderopacity="1" objecttolerance="10" gridtolerance="10" guidetolerance="10" inkscape:pageopacity="0" inkscape:pageshadow="2" inkscape:window-width="1280" inkscape:window-height="738" id="namedview30" showgrid="false" inkscape:zoom="1.0591837" inkscape:cx="325" inkscape:cy="282.76493" inkscape:window-x="-8" inkscape:window-y="-8" inkscape:window-maximized="1" inkscape:current-layer="svg2" /><metadata id="metadata8"><rdf:RDF><cc:Work rdf:about=""><dc:format>image/svg+xml</dc:format><dc:type rdf:resource="http://purl.org/dc/dcmitype/StillImage" /><dc:title /></cc:Work></rdf:RDF></metadata><defs id="defs6" /><g transform="matrix(5.6428568,0,0,5.6294976,-355.77082,-321.03052)" id="g3140"><g transform="matrix(1.0848811,0,0,-1.0848811,133.49104,65.667336)" id="g120"><path d="m 0,0 0,-1.662 -32.263,5.655 -32.26,-5.655 0,1.662 32.26,5.693 L 0,0 z" id="path122-4" style="fill:#ffffff;fill-opacity:1;fill-rule:evenodd;stroke:none" inkscape:connector-curvature="0" /></g><g transform="matrix(1.0848811,0,0,-1.0848811,133.49104,63.821194)" id="g124" style="fill:#0d8922;fill-opacity:1"><path d="m 0,0 0,-1.702 -32.263,5.693 -32.26,-5.693 0,1.702 32.26,5.69 L 0,0 z" id="path126-0" style="fill:#0d8922;fill-opacity:1;fill-rule:evenodd;stroke:none" inkscape:connector-curvature="0" /></g><g transform="matrix(1.0848811,0,0,-1.0848811,133.49104,67.469974)" id="g128"><path d="M 0,0 -32.263,5.654 -64.523,0 l 0,-5.737 0.281,0.157 c 0.113,0.065 11.56,6.412 32.044,6.412 20.483,0 31.798,-6.35 31.911,-6.412 L -0.013,-5.739 0,0 z" id="path130-9" style="fill:#ed1c24;fill-opacity:1;fill-rule:evenodd;stroke:none" inkscape:connector-curvature="0" /></g><g transform="matrix(1.0848811,0,0,-1.0848811,98.559817,67.772439)" id="g132"><path d="m 0,0 c 18.495,0 29.325,-5.204 31.077,-6.116 l 0,-16.516 c 0,-9.007 -2.118,-17.979 -6.299,-26.668 -9.15,-18.986 -22.914,-26.439 -24.842,-27.414 -1.928,0.975 -15.705,8.428 -24.853,27.414 -4.179,8.689 -6.3,17.661 -6.3,26.668 l 0,16.514 C -29.445,-5.207 -18.502,0 0,0" id="path134-4" style="fill:#fff200;fill-opacity:1;fill-rule:evenodd;stroke:none" inkscape:connector-curvature="0" /></g><g transform="matrix(1.0848811,0,0,-1.0848811,98.559817,67.772439)" id="g136" style="fill:#0a0a0a;fill-opacity:1"><path d="m 0,0 c 18.495,0 29.325,-5.204 31.077,-6.116 l 0,-16.516 c 0,-9.007 -2.118,-17.979 -6.299,-26.668 -9.15,-18.986 -22.914,-26.439 -24.842,-27.414 -1.928,0.975 -15.705,8.428 -24.853,27.414 -4.179,8.689 -6.3,17.661 -6.3,26.668 l 0,16.514 C -29.445,-5.207 -18.502,0 0,0 m -32.044,-5.301 -0.281,-0.157 0,-17.174 c 0,-9.174 2.156,-18.308 6.409,-27.146 9.987,-20.734 25.466,-27.984 25.623,-28.055 l 0.229,-0.107 0.229,0.107 c 0.155,0.071 15.623,7.325 25.61,28.055 4.255,8.838 6.411,17.972 6.411,27.146 l 0,17.172 -0.275,0.159 C 31.798,-5.239 20.483,1.11 0,1.11 c -20.484,0 -31.931,-6.346 -32.044,-6.411" id="path138-8" style="fill:#0a0a0a;fill-opacity:1;fill-rule:evenodd;stroke:none" inkscape:connector-curvature="0" /></g><g transform="matrix(1.0848811,0,0,-1.0848811,89.942717,131.69993)" id="g140" style="fill:#0a0a0a;fill-opacity:1"><path d="m 0,0 c -1.526,0.592 -2.403,0.918 -2.423,1.638 -0.009,1.217 1.527,0.925 1.878,0.8 1.984,-0.646 2.707,-2.125 2.707,-2.125 0,0 -0.328,1.945 -0.401,2.314 C 1.689,2.992 1.469,2.948 1.355,2.934 1.126,2.918 1.116,2.514 1.116,2.514 c 0,0 -4.919,2.066 -4.919,-1.168 0,-1.514 1.618,-1.764 2.336,-2.142 1.458,-0.771 3.294,-1.228 3.45,-2.384 0.142,-1.033 -0.783,-2.188 -2.78,-2.188 -1.996,0 -2.852,1.896 -2.781,2.264 0.076,0.371 0.444,0.149 0.742,0.149 0.293,0 0.803,0.317 0.562,0.931 -0.186,0.47 -1.727,0.509 -1.727,-1.061 0,-2.221 2.207,-2.892 3.167,-2.892 0.964,0 2.938,0.333 3.39,2.354 C 3.029,-1.515 2.001,-0.786 0,0 m 20.247,1.8 c 0.373,0.148 1.527,0 2.821,0.353 1.296,0.352 2.226,1.108 2.226,1.108 0,0 -1.283,-0.489 -3.354,-0.598 C 20.981,2.606 20.219,2.448 19.187,2.708 18.152,2.964 16.991,3.142 15.823,2.909 14.659,2.682 14.02,2.004 13.875,1.083 13.762,0.368 14.594,-0.055 15.297,0.12 c 0.758,0.186 0.987,1.097 0.987,1.097 0,0 -0.489,-0.385 -0.996,-0.48 -0.509,-0.092 -0.774,0.264 -0.629,0.623 0.269,0.663 0.702,0.841 1.136,0.904 0.433,0.062 0.955,0.098 1.926,0.01 0.969,-0.094 1.457,-0.27 1.197,-0.721 -0.312,-0.552 -0.644,-0.608 -1.125,-1.823 -0.212,-0.516 -0.158,-0.776 -0.507,-0.776 -0.168,0 -0.629,0.074 -0.981,-0.228 -0.428,-0.371 -0.363,-0.863 -0.363,-0.863 0,0 0.252,0.512 1.11,0.512 0.186,0 0.066,-0.48 -0.12,-0.861 -0.182,-0.377 -1.117,-2.892 -3.076,-2.892 -2.095,0 -2.403,2.052 -2.291,2.321 0.202,0.506 0.557,0.046 0.969,0.16 0.399,0.1 0.788,0.745 0.252,1.117 -1.247,0.856 -2.432,-1.249 -1.135,-3.1 1.226,-1.765 3.174,-1.097 4.19,-0.563 1.015,0.535 1.58,1.618 1.925,2.312 0.341,0.691 0.644,1.46 0.644,1.46 0,0 0.675,0 1.075,0.16 0.572,0.247 0.808,0.764 0.808,0.764 0,0 -0.439,-0.263 -1.644,-0.216 -0.147,0 0.197,0.725 0.521,1.354 0.351,0.684 0.778,1.283 1.077,1.409" id="path142-8" style="fill:#0a0a0a;fill-opacity:1;fill-rule:evenodd;stroke:none" inkscape:connector-curvature="0" /></g><g transform="matrix(1.0848811,0,0,-1.0848811,97.048477,72.658635)" id="g144" style="fill:#0a0a0a;fill-opacity:1"><path d="M 0,0 C 0.031,-0.002 0.424,0.184 0.424,0.184 0.44,0.217 0.351,0.591 0.351,0.591 0.344,0.603 -0.503,1.593 -0.503,1.593 L -0.544,1.641 -0.56,1.578 -0.648,1.178 c 0,0.005 -0.273,-0.645 -0.273,-0.645 L -0.934,0.508 -0.363,0.215 C -0.364,0.216 0,0 0,0 m 20.637,-20.531 c -0.04,0.049 -0.073,0.053 -0.093,0.046 -0.019,-0.006 -0.048,-0.024 -0.054,-0.085 -0.035,-0.254 -0.354,-0.91 -0.612,-1.007 -0.511,-0.199 -0.779,-0.803 -0.969,-1.244 -0.1,-0.226 -0.197,-0.443 -0.272,-0.447 -0.035,-0.002 -0.069,0.032 -0.11,0.107 -0.318,0.547 -0.141,1.385 0,2.058 l 0.037,0.166 c 0.117,0.568 0.781,1.365 1.176,1.843 l 0.177,0.211 c 0.271,0.337 0.338,1.482 0.288,1.568 -0.016,0.006 -0.028,-0.004 -0.035,-0.013 -0.005,-0.006 -0.008,-0.012 -0.014,-0.02 -0.002,10e-4 -0.006,10e-4 -0.006,10e-4 l 0,-0.004 c -0.018,-0.019 -0.028,-0.021 -0.042,-0.079 -0.071,-0.357 -0.725,-1.084 -1.842,-2.049 -0.228,-0.199 -0.491,-0.556 -0.704,-0.844 -0.137,-0.189 -0.299,-0.406 -0.342,-0.416 -0.275,1.477 0.226,2.32 0.463,2.728 l 0.109,0.207 c 0.474,1.285 1.691,2.258 1.702,2.268 0.017,0.038 0.017,0.076 -0.014,0.101 -0.045,0.038 -0.129,0.02 -0.266,-0.047 L 19.14,-15.52 c -0.424,-0.205 -1.701,-0.829 -2.486,-2.327 -0.564,-1.084 -0.783,-2.29 -0.783,-3.2 0,-0.466 0.057,-0.852 0.15,-1.106 0.277,-0.737 0.762,-2.56 0.908,-3.277 0.092,-0.444 0.108,-1.971 0.108,-2.927 0,-0.469 -0.002,-0.795 -0.002,-0.809 -0.004,0 -0.244,-0.774 -0.244,-0.774 0,-0.007 -0.117,-0.613 -1.108,-1.626 -0.994,-1.018 -2.107,-1.342 -2.118,-1.348 -0.446,-0.033 -0.853,-0.016 -0.866,0.042 0,1.165 -1.994,3.873 -3.013,4.766 -1.042,0.914 -1.874,1.567 -3.286,2.426 -1.441,0.877 -3.04,4.547 -3.057,4.584 0,-0.002 -0.14,0.496 -0.14,0.496 0,0 -0.078,0.991 -0.099,1.248 0.053,-0.029 0.118,-0.071 0.118,-0.071 l 0.492,-0.287 c 0.005,-10e-4 0.562,-0.214 0.562,-0.214 0.007,-0.005 0.74,-0.147 0.74,-0.147 l 0.409,-0.212 c 0,0.003 0.382,-0.247 0.382,-0.247 L 6.4,-20.957 c 10e-4,-10e-4 0.607,-0.319 0.607,-0.319 0.013,-0.002 0.729,-0.039 0.729,-0.039 l 0.015,0.059 -0.832,0.388 c 0,0.014 -0.298,0.526 -0.298,0.526 l -0.349,0.498 c -0.013,0.009 -0.431,0.26 -0.431,0.26 -0.012,0.005 -0.53,0.077 -0.533,0.077 0,0.002 -0.106,0.095 -0.161,0.142 0.047,0.026 0.136,0.082 0.136,0.082 0,-0.007 0.572,-0.073 0.574,-0.073 0,-0.006 0.507,-0.352 0.507,-0.352 l 0.555,-0.428 c 0.01,-0.006 0.528,-0.205 0.528,-0.205 l 0.066,-0.028 -0.224,0.592 c -0.008,0.011 -0.432,0.404 -0.432,0.404 l -0.629,0.535 c -0.002,0.005 -0.492,0.255 -0.492,0.255 -0.006,0.003 -0.529,0.179 -0.529,0.179 l -0.552,0.354 c 0,0 0.006,0.037 0.011,0.07 0.067,-0.025 0.763,-0.305 0.763,-0.305 0.004,-0.002 0.668,-0.181 0.668,-0.181 -0.002,0.001 0.555,-0.213 0.555,-0.213 -0.001,10e-4 0.798,-0.389 0.798,-0.389 0.007,-0.004 0.673,-0.148 0.673,-0.148 0.009,0 0.814,0.144 0.814,0.144 0.014,0.006 0.782,0.54 0.782,0.54 0.01,0.015 0.152,0.333 0.152,0.333 l 0.031,0.073 -0.25,-0.103 c -0.002,0 -0.699,-0.354 -0.699,-0.354 l -0.481,-0.105 c 0,10e-4 -0.545,0.108 -0.547,0.108 l 0.002,0 c 0,0.005 -0.441,0.417 -0.441,0.417 l -0.629,0.607 c -0.004,0.004 -0.565,0.291 -0.565,0.291 -0.009,0.002 -0.671,0.11 -0.671,0.11 0,0.002 -0.403,0.205 -0.409,0.21 0.002,0 0.002,0.007 0.002,0.019 0,0.048 -0.01,0.154 -0.016,0.205 0.071,-0.008 0.833,-0.071 0.833,-0.071 0.006,0 0.912,0.072 0.912,0.072 0,-0.001 0.514,-0.104 0.514,-0.104 0,-0.003 0.521,-0.216 0.521,-0.216 0.004,-0.002 0.533,-0.072 0.533,-0.072 l 0.095,-0.014 -0.594,0.569 c -0.005,0.004 -0.597,0.431 -0.597,0.431 -0.007,0.002 -0.496,0.181 -0.496,0.181 -0.009,0.003 -0.826,0.071 -0.843,0.071 0.007,0.003 0.008,0.016 0.008,0.037 0,0.047 -0.008,0.119 -0.012,0.156 0.051,0.01 0.385,0.064 0.385,0.064 0,-10e-4 0.616,-0.141 0.616,-0.141 0,-0.002 0.585,-0.352 0.585,-0.352 0.008,-0.002 0.634,-0.216 0.634,-0.216 0.016,0 0.921,0.141 0.921,0.141 l 0.055,0.008 -0.275,0.364 c -0.015,0.013 -0.468,0.153 -0.472,0.153 0,0.003 -0.373,0.282 -0.373,0.282 l -0.559,0.393 c -0.007,0.004 -0.425,0.145 -0.425,0.145 -0.01,0.003 -0.667,0.107 -0.668,0.107 0,0.008 -0.326,0.305 -0.332,0.312 0.007,10e-4 0.03,0.106 0.039,0.151 0.054,-0.015 0.347,-0.096 0.347,-0.096 l 0.448,-0.214 c 0.002,0 0.636,-0.2 0.636,-0.2 l -0.138,0.281 c -0.01,0.007 -0.248,0.257 -0.248,0.257 0,0 -0.155,0.199 -0.219,0.28 0.044,0.009 0.096,0.023 0.096,0.023 0,-0.008 0.677,-0.355 0.677,-0.355 0.005,0 0.523,-0.181 0.528,-0.181 0,0 0.407,-0.381 0.407,-0.381 0.007,-0.006 0.776,-0.44 0.776,-0.44 l 0.076,-0.045 -0.139,0.377 c -0.003,0.008 -0.423,0.543 -0.423,0.543 l -0.348,0.6 c -0.002,0.008 -0.633,0.647 -0.633,0.647 -0.007,0.008 -0.808,0.436 -0.808,0.436 0,0.003 -0.309,0.349 -0.309,0.349 0,0 -0.558,0.572 -0.558,0.573 0,0.008 -0.057,0.201 -0.088,0.302 0.095,-0.031 0.545,-0.179 0.545,-0.179 l 0.629,-0.177 c 0,-0.002 0.447,-0.281 0.447,-0.281 0,-0.004 0.373,-0.457 0.373,-0.457 0.014,-0.009 0.606,-0.261 0.606,-0.261 0.011,-0.002 1.519,-0.196 1.519,-0.196 l 0.086,-0.011 -0.414,0.436 c -0.012,0.008 -0.814,0.366 -0.814,0.366 l -0.482,0.351 c 0,0.008 -0.271,0.493 -0.271,0.493 l -0.281,0.498 c -0.005,0.008 -0.457,0.433 -0.457,0.433 -0.006,0.006 -0.566,0.327 -0.566,0.327 l -0.552,0.46 c 0,0.003 -0.134,0.281 -0.22,0.464 0.143,-0.136 0.382,-0.371 0.382,-0.371 l 0.737,-0.642 c 0.008,-0.005 0.568,-0.255 0.568,-0.255 l 0.477,-0.386 0.558,-0.568 c 0.019,-0.011 0.891,-0.132 0.891,-0.132 l 0.106,-0.016 -0.884,0.764 c 0,0.016 -0.198,0.628 -0.198,0.628 -0.007,0.013 -0.463,0.442 -0.463,0.442 l -0.242,0.282 c 0,0.007 -0.238,0.736 -0.238,0.736 -0.007,0.014 -0.499,0.51 -0.499,0.51 0,0.006 -0.798,0.748 -0.798,0.751 l 0,0.004 c 0,0.01 -0.028,0.124 -0.045,0.198 0.06,-0.031 0.143,-0.074 0.143,-0.074 l 0.732,-0.425 c 0.008,-0.006 0.881,-0.256 0.881,-0.256 l 0.909,-0.214 c 0.002,0 1.051,-0.17 1.051,-0.17 l -0.248,0.502 c -0.016,0.016 -0.539,0.229 -0.539,0.229 0,0.001 -0.484,0.282 -0.484,0.282 -0.007,0.005 -0.598,0.253 -0.598,0.253 l -0.521,0.213 c 0,0.006 -0.34,0.442 -0.527,0.683 0.181,-0.121 0.457,-0.311 0.457,-0.311 0.015,-0.005 0.472,-0.042 0.472,-0.042 l 1.432,0 c 0,-0.003 0.58,-0.317 0.58,-0.317 0,-0.002 0.494,-0.534 0.494,-0.534 l 0.066,-0.071 -0.062,0.601 c -0.006,0.018 -0.319,0.409 -0.319,0.409 -0.007,0.007 -0.847,0.473 -0.847,0.473 -0.006,0 -0.668,0.251 -0.668,0.251 -0.006,0 -1.01,0.179 -1.017,0.179 l 0,0.001 c 0,0.01 -0.192,0.24 -0.192,0.24 -0.002,10e-4 -0.735,0.678 -0.735,0.678 -0.005,0.004 -0.357,0.183 -0.357,0.183 0,0.002 -0.113,0.118 -0.179,0.188 l 0.376,0 c 0,-0.004 0.575,-0.352 0.575,-0.352 0.008,-0.002 0.775,-0.251 0.775,-0.251 0.006,-0.001 0.983,-0.143 0.983,-0.143 0,-0.01 0.363,-0.42 0.363,-0.42 0.008,-0.003 0.533,-0.324 0.533,-0.324 0.013,-0.005 0.605,-0.108 0.605,-0.108 L 11,-5.964 9.759,-4.441 c -0.01,0.006 -0.604,0.327 -0.604,0.327 -0.005,0.004 -0.7,0.218 -0.7,0.218 0,0.008 -0.616,0.704 -0.616,0.704 -0.006,0.008 -0.777,0.47 -0.777,0.47 -0.006,0.003 -0.451,0.111 -0.557,0.135 0.035,0.056 0.149,0.247 0.149,0.25 0.002,-0.007 0.617,0.271 0.617,0.271 0,-0.002 0.899,0.174 0.899,0.174 0.025,0.022 0.095,0.237 0.095,0.237 -0.014,0.037 -0.395,0.286 -0.395,0.286 -0.008,0.003 -0.462,0.146 -0.462,0.146 -0.03,-0.003 -0.271,-0.144 -0.271,-0.145 0,0.002 -0.754,-0.03 -0.754,-0.03 0,0 -0.901,0.211 -0.901,0.213 0,0.002 -0.926,0.778 -0.926,0.778 C 4.549,-0.404 4.13,-0.192 4.13,-0.192 4.118,-0.188 2.589,-0.01 2.583,-0.01 2.583,0.011 2.222,0.546 2.222,0.546 2.22,0.552 1.732,1.084 1.732,1.084 1.73,1.089 1.104,1.651 1.104,1.651 L 1.084,1.611 0.875,1.147 C 0.876,1.151 0.668,0.832 0.668,0.832 l 0,-0.01 c 0,-0.057 0.03,-0.367 0.03,-0.367 0.01,-0.019 0.213,-0.229 0.216,-0.233 -0.01,0 -0.078,-0.322 -0.078,-0.325 -0.002,0.021 -0.839,-0.012 -0.839,-0.012 0,0.005 -0.687,0.318 -0.687,0.318 -0.001,0 -0.525,0.179 -0.525,0.179 C -1.227,0.382 -2.45,0.347 -2.45,0.347 -2.474,0.332 -2.684,0.012 -2.684,0.012 l -0.026,-0.041 0.537,-0.078 c 0,-0.003 0.078,-0.053 0.124,-0.081 -0.043,-0.036 -0.138,-0.113 -0.138,-0.113 0,0.007 -0.75,0.042 -0.75,0.042 -0.011,-0.001 -0.535,-0.215 -0.535,-0.215 l -0.054,-0.024 0.26,-0.174 c 0.015,-0.007 1.133,-0.042 1.133,-0.042 10e-4,-0.001 0.824,-0.213 0.829,-0.214 0,-0.012 0.159,-0.237 0.159,-0.237 0,0 0.112,-0.157 0.153,-0.22 -0.053,-0.03 -0.355,-0.197 -0.355,-0.197 0.005,0.002 -1.009,-0.427 -1.009,-0.427 -0.003,0 -2.095,-1.175 -2.095,-1.175 -0.002,0.001 -1.382,-0.205 -1.382,-0.205 -0.008,-0.002 -0.538,-0.299 -0.538,-0.299 -0.012,-0.007 -0.435,-0.595 -0.435,-0.595 -0.006,-0.005 -0.246,-0.739 -0.246,-0.739 -0.019,-1.244 0.031,-1.273 0.05,-1.284 0.041,-0.027 0.398,-0.226 0.677,-0.081 0.317,0.172 0.99,0.342 1.339,0.416 0.172,0.035 0.254,-0.027 0.269,-0.091 0.019,-0.07 -0.033,-0.165 -0.163,-0.201 l -0.071,-0.022 c -0.61,-0.165 -1.231,-0.366 -1.212,-0.601 l 0.109,-0.179 c 0.273,-0.199 0.977,-0.103 1.352,-0.017 l 0.392,0.108 c 0.335,0.105 0.72,0.219 1.051,0.18 0.187,-0.022 0.354,-0.102 0.551,-0.194 0.267,-0.129 0.572,-0.277 1.029,-0.306 0.758,-0.051 1.276,-0.206 1.318,-0.25 0.1,-0.207 0.035,-0.514 -0.015,-0.761 L -0.417,-8.53 c -0.212,-1.928 -2.364,-4.104 -3.399,-5.15 -0.28,-0.283 -0.466,-0.468 -0.505,-0.549 l -0.119,-0.273 c -0.102,-0.256 -0.184,-0.477 -0.511,-0.609 -0.192,-0.074 -0.636,-0.409 -1.149,-0.792 -0.742,-0.555 -1.665,-1.244 -1.916,-1.213 -0.426,0.049 -2.408,1.413 -2.493,1.496 -1.932,1.869 -2.739,1.485 -3.222,1.258 l -0.078,-0.036 c -0.575,-0.261 -1.179,-1.894 -1.235,-2.244 l -0.233,-1.006 -0.179,-0.739 c -0.053,-0.247 -0.291,-0.861 -0.519,-1.455 l -0.465,-1.291 c -0.078,-0.3 -0.265,-0.719 -0.415,-1.059 l -0.207,-0.502 c -0.143,-0.591 -0.146,-3.826 0.103,-4.11 l 0.013,-0.013 0.049,-0.014 c 0.248,0.025 0.788,0.58 1.045,0.848 l 0.06,0.061 c 0.22,0.22 0.452,0.805 0.452,1.053 0,0.243 -0.114,0.747 -0.157,0.884 -0.351,1.068 -0.217,2.085 -0.155,2.572 l 0.026,0.217 c 0.019,0.226 0.245,0.478 0.464,0.718 l 0.281,0.323 c 0.151,0.203 0.322,0.27 0.473,0.332 l 0.249,0.141 0.036,0.04 c 0.166,0.166 0.442,0.444 0.565,0.819 l 0.237,1.023 0.05,0.271 c 0.013,0.054 0.041,0.086 0.085,0.094 0.096,0.022 0.237,-0.051 0.297,-0.133 l 1.709,-1.983 c 0.436,-0.371 0.888,-0.818 0.888,-0.915 l 0,-0.007 -0.012,-0.002 c -0.239,-0.025 -1.443,0.231 -1.642,0.29 -1.637,0.479 -2.384,0.394 -2.961,-0.327 -0.657,-0.824 -0.45,-3.354 -0.317,-3.631 0.126,-0.252 0.723,-3.332 0.752,-3.743 0.026,-0.404 0.182,-1.123 0.346,-1.288 l 0.043,-0.046 c 0.201,-0.199 0.736,-0.734 0.826,-1.26 0.101,-0.574 1.32,-2.109 1.783,-2.245 0.071,-0.023 0.141,-0.007 0.205,0.039 0.355,0.253 0.515,1.479 0.536,1.998 0.023,0.647 -0.211,0.959 -0.456,1.292 l -0.095,0.132 c -0.181,0.248 -0.502,0.335 -0.711,0.397 -0.089,0.025 -0.212,0.054 -0.212,0.081 0,0.011 -0.027,0.957 -0.328,1.139 -0.235,0.147 -0.477,1.06 -0.503,1.407 -0.026,0.344 -0.163,1.178 -0.339,1.544 -0.183,0.369 -0.336,1.046 -0.255,1.568 0.029,0.223 0.191,0.293 0.32,0.313 0.227,0.036 0.485,-0.06 0.525,-0.139 0.088,-0.18 1.813,-1.221 2.395,-1.443 0.362,-0.139 0.853,-0.551 1.284,-0.92 0.308,-0.257 0.571,-0.479 0.737,-0.557 0.22,-0.109 0.853,-0.121 1.359,-0.129 0.268,-0.006 0.549,-0.013 0.586,-0.035 -0.205,-0.083 -0.203,-0.444 -0.188,-0.559 0.212,-1.49 5.637,-5.588 6.054,-5.819 0.488,-0.26 2.229,-2.079 2.381,-2.326 0.158,-0.244 0.312,-0.509 0.282,-0.714 -0.041,-0.302 0.08,-0.647 0.322,-0.931 0.234,-0.262 0.536,-0.419 0.816,-0.419 0.243,0 0.404,0.214 0.523,0.371 l 0.023,0.036 c 0.325,0.428 0.809,1.054 0.868,2.038 0.063,1.004 0.527,1.405 0.675,1.431 0.069,0.013 0.117,-0.007 0.135,-0.052 0.017,-0.048 -0.005,-0.122 -0.094,-0.183 -0.2,-0.136 -0.326,-0.581 -0.459,-1.055 -0.001,-0.004 -0.053,-0.487 -0.053,-0.487 -0.011,-0.358 -0.023,-0.767 -0.386,-1.163 -0.536,-0.584 -1.152,-1.928 -1.315,-3.625 -0.096,-1.022 0.363,-2.495 1.368,-4.372 l 0.071,-0.134 0.271,-0.456 c 0.275,-0.441 0.731,-1.174 0.712,-1.347 -0.03,-0.242 -0.053,-0.431 -0.471,-0.958 -0.462,-0.577 -2.135,-2.528 -2.3,-2.56 -0.335,0 -0.39,-0.041 -0.66,-0.245 l -0.284,-0.215 c -0.309,-0.223 -0.363,-0.385 -0.414,-0.533 -0.039,-0.109 -0.075,-0.204 -0.218,-0.311 l -0.108,-0.075 c -0.022,-0.017 -0.085,-0.103 -0.757,-0.778 -0.773,-0.765 -1.118,-1.629 -0.999,-2.49 0.034,-0.267 0.268,-0.361 0.954,-0.394 0.686,-0.031 2.256,1.067 2.328,1.428 l 0.024,0.134 c 0.057,0.324 0.16,0.869 0.339,0.946 0.214,0.096 0.579,0.519 0.85,0.831 l 0.055,0.054 c 0.141,0.166 0.177,0.332 0.211,0.49 0.028,0.122 0.056,0.247 0.138,0.362 0.062,0.082 0.158,0.129 0.265,0.18 0.209,0.099 0.471,0.229 0.661,0.701 0.188,0.468 1.311,1.273 2.131,1.858 0.421,0.299 0.75,0.538 0.826,0.642 0.108,0.141 0.174,0.41 0.174,0.697 0,0.341 -0.089,0.706 -0.306,0.908 -0.311,0.288 -0.602,1.148 -0.691,1.415 l 0,0.008 c 0,0.112 -0.009,0.316 -0.028,0.699 -0.002,0.017 -0.002,0.034 -0.002,0.052 0,1.006 1.498,1.99 2.147,2.416 l 0.293,0.206 c 2.345,2.066 2.804,3.638 2.89,4.069 l 0.049,0.518 c 0.015,0.36 0.025,0.699 0.242,0.745 0.084,0.016 0.225,-0.051 0.309,-0.154 0.053,-0.056 0.123,-0.17 0.074,-0.304 -0.105,-0.289 -0.144,-3.205 -0.144,-3.327 0.008,-0.021 0.254,-0.306 0.254,-0.306 l 0.044,-0.053 0.012,0.068 c 0.003,0.033 0.139,0.828 0.139,1.11 0,0.311 0.502,1.66 0.628,1.684 0,-0.006 0.005,-0.014 0.005,-0.014 0.063,-0.19 0.138,-0.649 0.138,-1.135 0,-0.476 -0.074,-0.976 -0.304,-1.267 -0.354,-0.433 -0.633,-1.121 -0.815,-1.573 l -0.167,-0.387 c -0.014,-0.03 -0.025,-0.092 -0.025,-0.167 0,-0.369 0.19,-1.157 0.315,-1.305 0.034,-0.033 0.059,-0.033 0.079,-0.025 0.039,0.015 0.078,0.066 0.078,0.375 0,1.18 0.986,2.035 1.001,2.041 0.876,0.693 1.063,1.978 1.063,2.954 0,0.741 -0.11,1.308 -0.111,1.322 -0.004,0.011 -0.409,0.598 -0.418,0.611 0.019,-0.009 0.131,0.084 0.17,0.114 0.037,-0.046 0.433,-0.575 0.433,-0.575 0.07,-0.094 0.24,-0.368 0.24,-0.478 0,-0.604 0.09,-1.019 0.159,-1.324 l 0.015,-0.073 c 0.072,-0.323 0.507,-1.354 0.527,-1.398 l 0.046,-0.11 0.013,0.12 c 0,0.005 0.07,0.543 0,1.006 -0.038,0.257 0.013,0.575 0.063,0.919 l 0.076,0.785 c 0,0.641 -0.088,1.043 -0.316,1.412 l -0.116,0.174 c -0.047,0.073 -0.092,0.143 -0.086,0.158 l 0.086,0.039 c 1.842,0.624 2.699,1.982 3.051,2.733 0.368,0.796 0.384,2.024 0.384,2.259 0,0.307 -0.013,1.903 -0.279,2.72 -0.157,0.484 -0.108,1.001 -0.056,1.563 l 0.058,0.959 c 0,0.655 0.346,1.143 0.682,1.614 l 0.397,0.617 c 0.261,0.511 0.124,0.96 0.016,1.091 M 1.69,-44.29 2.496,-44.674 c 0.465,-0.178 0.764,-0.1 0.871,-0.055 0.112,0.05 0.538,0.506 0.633,0.895 0.043,0.159 0.02,0.298 -0.065,0.4 -0.314,0.37 -0.872,2.08 -1.077,3.007 -0.077,0.342 0.017,1.291 0.087,2.051 0.063,0.656 0.103,1.063 0.071,1.167 -0.057,0.162 -0.297,0.318 -0.577,0.495 l -0.441,0.298 c -0.233,0.193 -0.244,0.456 -0.258,0.734 l -0.046,0.439 c -0.102,0.406 -2.169,2.518 -2.489,2.535 -0.464,0.032 -0.585,-0.477 -0.615,-0.782 -0.017,-0.181 0.19,-0.981 0.377,-1.691 l 0.205,-0.857 c 0.212,-1.343 1.641,-3.711 2.251,-4.725 l 0.288,-0.49 c 0.128,-0.287 0.077,-0.511 -0.145,-0.635 -0.215,-0.125 -2.073,0.07 -2.962,0.274 -0.383,0.087 -0.855,0.276 -1.312,0.461 -0.525,0.212 -1.025,0.413 -1.313,0.429 -0.334,0.019 -0.495,-0.05 -0.617,-0.109 l -0.202,-0.055 -0.2,0.063 c -0.248,0.11 -0.708,0.308 -1.965,0.423 -1.831,0.171 -1.969,-0.198 -2.043,-0.395 -0.092,-0.255 1.031,-1.445 1.23,-1.603 0.253,-0.208 1.076,-0.521 1.581,-0.437 0.573,0.091 1.513,0.21 1.628,0.186 l 0.186,-0.115 0.177,-0.125 c 0.159,-0.064 1.183,-0.122 1.493,-0.138 0.357,-0.019 1.295,-0.213 1.979,-0.355 l 0.767,-0.157 c 0.299,-0.052 1.072,-0.434 1.697,-0.749" id="path146-2" style="fill:#0a0a0a;fill-opacity:1;fill-rule:evenodd;stroke:none" inkscape:connector-curvature="0" /></g><g transform="matrix(1.0848811,0,0,-1.0848811,97.452157,118.97481)" id="g148"><path d="M 0,0 0.027,0.041 C 0.076,0.242 -0.932,0.554 -1.468,0.693 -2.112,0.856 -2.882,0.991 -3.05,0.884 L -3.063,0.879 -3.088,0.835 C -3.137,0.636 -2.13,0.324 -1.594,0.184 -0.948,0.023 -0.181,-0.104 -0.01,-0.005 L 0,0 z m -4.259,1.426 c -0.168,0 -0.301,-0.09 -0.301,-0.207 0,-0.111 0.133,-0.205 0.301,-0.205 0.161,0 0.295,0.094 0.295,0.205 0,0.114 -0.134,0.207 -0.295,0.207 M -7.751,1.67 c -0.236,0 -0.429,-0.135 -0.429,-0.301 0,-0.171 0.193,-0.3 0.429,-0.3 0.239,0 0.43,0.129 0.43,0.3 0,0.166 -0.191,0.301 -0.43,0.301 M 0.492,-9.771 c -0.123,0 -0.296,-0.099 -0.447,-0.252 -0.16,-0.16 -0.25,-0.337 -0.25,-0.457 0,-0.047 0.013,-0.085 0.043,-0.111 l 0.111,-0.044 c 0.119,0 0.3,0.097 0.448,0.253 0.221,0.226 0.308,0.464 0.208,0.57 l -0.113,0.041 z m 1.575,2.273 C 1.971,-7.498 1.811,-7.591 1.674,-7.731 1.507,-7.898 1.384,-8.13 1.476,-8.226 l 0.087,-0.031 c 0.102,0 0.257,0.092 0.396,0.234 0.164,0.168 0.29,0.396 0.195,0.491 L 2.067,-7.498 z M 5.66,-4.181 5.627,-4.172 C 5.456,-4.172 4.81,-4.738 4.259,-5.304 4.21,-5.354 3.014,-6.583 3.172,-6.741 L 3.179,-6.75 3.218,-6.76 c 0.174,0 0.818,0.57 1.368,1.129 0.051,0.053 1.252,1.277 1.086,1.441 L 5.66,-4.181 z M 2.053,0.583 c -0.152,0 -0.286,-0.121 -0.286,-0.27 0,-0.149 0.134,-0.27 0.286,-0.27 0.158,0 0.284,0.121 0.284,0.27 0,0.149 -0.126,0.27 -0.284,0.27 m 4.951,-3.935 c -0.181,0 -0.328,-0.142 -0.328,-0.323 0,-0.18 0.147,-0.319 0.328,-0.319 0.182,0 0.327,0.139 0.327,0.319 0,0.181 -0.145,0.323 -0.327,0.323 M 4.901,-1.028 4.916,-0.94 C 4.92,-0.887 5.079,0.335 4.703,0.807 4.617,0.913 4.509,0.975 4.377,0.989 4.267,0.998 4.188,0.963 4.146,0.892 3.917,0.521 4.815,-0.89 4.855,-0.953 L 4.901,-1.028 z M 3.588,3.357 C 3.599,3.344 3.626,3.292 3.671,3.296 l 0.018,0 0.035,0.05 0.287,0.88 0.226,0.585 0.192,0.443 c 0.057,0.148 0.057,0.25 0,0.306 C 4.337,5.645 4.146,5.575 4.124,5.567 4.106,5.553 3.582,4.676 3.582,4.676 3.479,4.519 3.44,4.306 3.44,4.089 3.44,3.779 3.518,3.472 3.588,3.357 m -15.705,8.266 c -0.175,0 -0.319,-0.142 -0.319,-0.312 0,-0.17 0.144,-0.31 0.319,-0.31 0.178,0 0.321,0.14 0.321,0.31 0,0.17 -0.143,0.312 -0.321,0.312 m -4.646,5.935 c -0.151,0 -0.274,-0.113 -0.274,-0.254 0,-0.133 0.123,-0.243 0.274,-0.243 0.15,0 0.277,0.11 0.277,0.243 0,0.141 -0.127,0.254 -0.277,0.254 m 1.89,1.095 -0.01,0.007 -0.054,0.006 c -0.188,-0.043 -0.056,-0.862 0.04,-1.291 0.141,-0.601 0.325,-1.085 0.454,-1.166 l 0.011,-0.007 0.052,-0.006 c 0.19,0.045 0.055,0.865 -0.043,1.291 -0.135,0.606 -0.319,1.086 -0.45,1.166 m 0.161,2.896 c 0.138,0.186 0.167,0.395 0.063,0.474 l -0.122,0.026 c -0.097,-0.013 -0.22,-0.097 -0.308,-0.223 -0.139,-0.184 -0.165,-0.394 -0.063,-0.473 l 0.119,-0.024 c 0.1,0.013 0.222,0.096 0.311,0.22 m -0.356,2.652 c 0.141,0.067 0.356,0.451 0.517,0.933 0.171,0.511 0.264,1.06 0.096,1.119 l -0.076,-0.006 c -0.146,-0.073 -0.358,-0.456 -0.519,-0.936 -0.174,-0.513 -0.263,-1.061 -0.101,-1.118 l 0.083,0.008 z m 1.586,3.466 c -0.26,0 -0.469,-0.126 -0.469,-0.28 0,-0.156 0.209,-0.28 0.469,-0.28 0.266,0 0.475,0.124 0.475,0.28 0,0.154 -0.209,0.28 -0.475,0.28 M -8.57,24.48 c -0.202,-0.086 -0.525,-0.599 -0.782,-1.252 -0.181,-0.46 -0.316,-0.963 -0.316,-1.265 0,-0.141 0.03,-0.241 0.1,-0.271 l 0.104,0.008 c 0.204,0.086 0.525,0.604 0.785,1.252 0.18,0.463 0.316,0.965 0.316,1.266 0,0.143 -0.032,0.241 -0.098,0.268 L -8.57,24.48 z m -2.68,-0.373 0.074,0.032 c 0.095,0.105 -0.122,0.406 -0.386,0.647 -0.234,0.219 -0.477,0.361 -0.603,0.353 l -0.072,-0.031 c -0.014,-0.016 -0.022,-0.039 -0.022,-0.066 0,-0.137 0.187,-0.379 0.407,-0.583 0.236,-0.218 0.479,-0.361 0.602,-0.352 m 0.255,-4.451 c -0.543,0.336 -1.484,0.524 -1.495,0.529 l -0.024,-0.058 1.043,-0.788 c 0.173,-0.14 0.933,-0.611 1.178,-0.419 0.042,0.037 0.049,0.079 0.046,0.102 -0.006,0.144 -0.267,0.332 -0.748,0.634 m 10.51,-8.589 c -0.024,0.032 -2.708,2.939 -3.286,3.701 -0.592,0.781 -0.875,0.842 -1.162,0.681 -0.044,-0.026 -0.069,-0.067 -0.076,-0.118 -0.041,-0.319 0.628,-1.087 1.214,-1.649 0.819,-0.791 3.243,-2.643 3.266,-2.662 l 0.044,0.047 z M 10.869,8.244 10.854,8.248 10.844,8.244 C 10.836,8.236 10.645,8.148 10.591,7.962 10.555,7.839 10.624,7.732 10.676,7.643 L 10.742,7.522 10.768,7.29 10.81,6.941 c 0.026,-0.075 0.091,-0.121 0.169,-0.119 0.088,0.004 0.191,0.073 0.224,0.207 0.047,0.19 0.068,0.442 0.068,0.775 0,0.312 -0.387,0.434 -0.402,0.44 m -7.318,3.998 c 0.04,-0.041 0.108,-0.052 0.178,-0.028 0.088,0.034 0.183,0.121 0.192,0.251 0.018,0.171 0.137,0.4 0.311,0.594 0.167,0.191 0.2,0.517 -0.032,0.742 L 3.974,13.89 C 3.829,13.886 3.72,13.77 3.716,13.767 3.707,13.749 3.496,12.682 3.496,12.682 l 0,0.002 C 3.475,12.623 3.455,12.335 3.551,12.242 m 14.128,4.418 -0.063,-0.011 c 0.002,-0.011 0.016,-0.479 0.016,-1.079 0,-0.878 -0.031,-2.048 -0.181,-2.572 -0.125,-0.428 -0.691,-1.241 -1.146,-1.894 l -0.529,-0.792 c -0.017,-0.029 -0.024,-0.062 -0.024,-0.091 0,-0.078 0.04,-0.151 0.11,-0.2 0.054,-0.036 0.246,-0.131 0.513,0.19 l 0.339,0.358 c 0.454,0.451 1.013,1.011 1.409,2.245 0.432,1.356 -0.436,3.822 -0.444,3.846 M 3.968,17.343 c 0.422,-0.197 0.571,-0.266 0.633,-0.287 0.002,0 0.003,-0.004 0.003,-0.004 0,0 0.004,0 0.004,0.002 0.029,-0.009 0.038,-0.008 0.045,0.005 -0.004,0.002 -0.021,0.026 -0.028,0.034 0.004,0.004 0.009,0.013 0.009,0.013 0,0 -0.026,0.012 -0.026,0.015 C 4.327,17.473 2.649,19.857 2.293,21.428 2.236,21.686 2.169,21.925 2.002,22.021 1.905,22.077 1.787,22.081 1.641,22.03 1.606,22.021 1.581,21.995 1.567,21.952 1.551,21.92 1.549,21.872 1.549,21.816 c 0,-0.56 0.597,-2.104 0.794,-2.423 1.076,-1.749 1.605,-2.04 1.625,-2.05 m -4.007,6.459 c 0.084,0.052 0.121,0.147 0.115,0.281 -0.028,0.528 -0.172,0.588 -0.463,0.588 -0.298,0 -0.507,-0.296 -0.507,-0.451 0,-0.144 0.105,-0.269 0.31,-0.374 0.118,-0.06 0.386,-0.149 0.545,-0.044 m -4.81,2.445 0.354,0.064 c 0.313,0.07 0.787,0.175 1.369,0.191 0.425,0.012 0.885,-0.136 1.221,-0.247 0.303,-0.102 0.453,-0.146 0.514,-0.081 0.035,0.041 0.012,0.1 -0.007,0.143 -0.092,0.197 -0.493,0.844 -1.798,0.875 -0.852,0.018 -1.541,-0.557 -1.688,-0.802 -0.03,-0.049 -0.039,-0.086 -0.024,-0.113 l 0.014,-0.02 0.045,-0.01 z m 7.61,-0.462 c 0.141,0 0.259,0.086 0.259,0.195 0,0.106 -0.118,0.194 -0.259,0.194 -0.143,0 -0.259,-0.088 -0.259,-0.194 0,-0.109 0.116,-0.195 0.259,-0.195 m 0.261,0.532 c 0.148,0 0.269,0.086 0.269,0.194 0,0.108 -0.119,0.193 -0.269,0.193 -0.153,0 -0.272,-0.085 -0.272,-0.193 0,-0.108 0.123,-0.194 0.272,-0.194 m 0.271,0.555 c 0.158,0 0.293,0.101 0.293,0.23 0,0.127 -0.135,0.227 -0.293,0.227 -0.16,0 -0.291,-0.1 -0.291,-0.227 0,-0.129 0.131,-0.23 0.291,-0.23 m 0.239,1.268 c -0.157,0 -0.283,-0.119 -0.283,-0.266 0,-0.144 0.126,-0.261 0.283,-0.261 0.153,0 0.282,0.117 0.282,0.261 0,0.147 -0.129,0.266 -0.282,0.266 m 0.507,0.5 c 0,0.145 -0.131,0.263 -0.293,0.263 -0.16,0 -0.295,-0.118 -0.295,-0.263 0,-0.147 0.135,-0.263 0.295,-0.263 0.162,0 0.293,0.116 0.293,0.263 m 0.294,0.842 c 0,0.164 -0.162,0.3 -0.361,0.3 -0.198,0 -0.359,-0.136 -0.359,-0.3 0,-0.164 0.161,-0.297 0.359,-0.297 0.199,0 0.361,0.133 0.361,0.297 m 0.158,0.869 c 0,0.143 -0.154,0.264 -0.337,0.264 -0.186,0 -0.339,-0.121 -0.339,-0.264 0,-0.148 0.153,-0.265 0.339,-0.265 0.183,0 0.337,0.117 0.337,0.265 m 0.296,0.692 c 0,0.151 -0.203,0.265 -0.464,0.265 -0.256,0 -0.462,-0.114 -0.462,-0.265 0,-0.147 0.206,-0.265 0.462,-0.265 0.261,0 0.464,0.118 0.464,0.265 m -0.698,0.821 c 0,-0.138 0.17,-0.251 0.395,-0.251 0.221,0 0.391,0.113 0.391,0.251 0,0.142 -0.17,0.252 -0.391,0.252 -0.225,0 -0.395,-0.11 -0.395,-0.252 m 0.017,0.454 c 0.082,-0.062 0.221,-0.085 0.366,-0.063 0.228,0.032 0.389,0.157 0.37,0.287 L 4.775,32.648 C 4.696,32.71 4.555,32.734 4.41,32.712 4.184,32.682 4.02,32.554 4.039,32.424 l 0.067,-0.106 z m 0.379,0.74 c 0.204,0.017 0.354,0.129 0.341,0.258 L 4.76,33.434 C 4.69,33.492 4.57,33.521 4.446,33.51 4.248,33.494 4.103,33.387 4.103,33.264 l 0,-0.014 0.067,-0.113 c 0.071,-0.062 0.188,-0.092 0.315,-0.079 m 0.111,1.279 c -0.181,0 -0.327,-0.106 -0.327,-0.241 0,-0.133 0.146,-0.24 0.327,-0.24 0.179,0 0.324,0.107 0.324,0.24 0,0.135 -0.145,0.241 -0.324,0.241 M 4.584,35.1 C 4.421,35.1 4.29,35 4.29,34.871 c 0,-0.125 0.131,-0.228 0.294,-0.228 0.163,0 0.291,0.103 0.291,0.228 C 4.875,35 4.747,35.1 4.584,35.1 m 0.012,0.604 c -0.143,0 -0.259,-0.094 -0.259,-0.207 0,-0.114 0.116,-0.205 0.259,-0.205 0.141,0 0.259,0.091 0.259,0.205 0,0.113 -0.118,0.207 -0.259,0.207 m -0.211,0.481 c 0,-0.121 0.102,-0.219 0.228,-0.219 0.124,0 0.221,0.098 0.221,0.219 0,0.119 -0.097,0.217 -0.221,0.217 -0.126,0 -0.228,-0.098 -0.228,-0.217 m 0.109,0.904 c -0.125,0 -0.225,-0.095 -0.225,-0.217 0,-0.12 0.1,-0.216 0.225,-0.216 0.125,0 0.225,0.096 0.225,0.216 0,0.122 -0.1,0.217 -0.225,0.217 M 0.642,33.395 0.534,33.407 C 0.249,33.333 -0.238,32.492 -0.579,31.869 L -0.641,31.762 -1.666,29.84 -1.985,29.228 c -0.038,-0.056 -0.026,-0.139 0.029,-0.189 0.051,-0.05 0.137,-0.08 0.242,-0.011 0.169,0.113 0.794,0.731 1.081,1.218 l 0.386,0.529 C 0,31.098 0.282,31.458 0.446,31.888 l 0.058,0.147 c 0.392,1.013 0.453,1.168 0.138,1.36 m 1.319,2.678 C 1.909,36.152 1.817,36.184 1.748,36.147 L 1.564,36.011 C 1.438,35.904 1.275,35.77 1.136,35.731 0.797,35.642 0.338,35.49 0.31,35.256 l 0,-0.029 c 0,-0.065 0.028,-0.102 0.056,-0.123 0.128,-0.104 0.44,-0.043 0.666,0.042 0.346,0.128 0.559,0.285 0.83,0.532 0.167,0.152 0.159,0.304 0.099,0.395 m -1.696,-0.13 c 0,-0.119 0.061,-0.167 0.092,-0.181 0.091,-0.048 0.22,-10e-4 0.295,0.107 l 0.261,0.226 c 0.141,0.1 0.298,0.215 0.438,0.391 0.129,0.168 0.074,0.271 0.027,0.314 -0.087,0.087 -0.27,0.108 -0.331,0.055 L 0.972,36.805 C 0.801,36.694 0.399,36.432 0.298,36.113 0.275,36.044 0.265,35.99 0.265,35.943 M -1.059,36.647 -1.425,36.389 -1.452,36.36 C -1.498,36.318 -1.52,36.292 -1.49,36.203 l 0.044,-0.063 0.097,0.021 0.14,0.049 0.204,0.036 c 0.199,0.025 0.418,0.054 0.52,0.158 l 0.135,0.222 0.2,0.322 c 0.098,0.105 0.101,0.18 0.087,0.22 -0.013,0.039 -0.044,0.065 -0.092,0.074 -0.065,0.014 -0.133,-0.012 -0.178,-0.067 -0.063,-0.074 -0.446,-0.336 -0.726,-0.528 m -3.353,0.027 c 0.128,0 0.23,0.106 0.23,0.234 0,0.129 -0.102,0.231 -0.23,0.231 -0.127,0 -0.228,-0.102 -0.228,-0.231 0,-0.128 0.101,-0.234 0.228,-0.234 m -1.041,1.51 c -0.053,-0.05 -0.03,-0.157 -0.015,-0.243 l 0.009,-0.06 -0.009,-0.036 c -0.012,-0.032 -0.025,-0.071 0,-0.104 0.019,-0.032 0.074,-0.047 0.165,-0.047 0.113,-0.002 0.126,0.011 0.166,0.113 l 0.03,0.078 c 0.026,0.07 0.026,0.134 0.002,0.182 -0.048,0.087 -0.164,0.12 -0.253,0.139 -0.05,0.011 -0.079,-0.006 -0.095,-0.022 m -0.881,0.101 c -0.178,0 -0.257,-0.098 -0.321,-0.181 l -0.079,-0.091 c -0.135,-0.115 -0.179,-0.398 -0.16,-0.614 0.005,-0.088 0.032,-0.249 0.12,-0.303 0.168,-0.102 0.247,-0.03 0.42,0.134 0.011,0.011 0.133,0.113 0.133,0.113 0.169,0.141 0.363,0.304 0.39,0.55 0.011,0.105 -0.015,0.19 -0.073,0.253 -0.102,0.116 -0.292,0.139 -0.43,0.139 m 2.384,0.585 0.072,0.022 0.586,0.229 0.852,0.558 c 0.023,0.017 0.245,0.187 0.199,0.293 -0.03,0.071 -0.142,0.06 -0.223,0.045 -0.233,-0.045 -0.462,-0.157 -0.709,-0.276 L -3.519,39.579 -3.67,39.516 c -0.527,-0.217 -0.956,-0.412 -0.877,-0.613 0.048,-0.118 0.271,-0.131 0.597,-0.033 m 3.403,-0.292 c 0.09,0.01 0.167,0.046 0.213,0.111 0.133,0.203 0.14,0.487 0.008,0.744 -0.124,0.246 -0.339,0.403 -0.56,0.413 l 0.001,-0.002 -0.047,0.008 -0.407,-0.035 c -0.214,-0.047 -0.413,-0.205 -0.46,-0.36 -0.025,-0.082 -0.013,-0.153 0.042,-0.205 0.327,-0.349 0.888,-0.698 1.21,-0.674 m 4.468,0.361 c 0.028,0.087 0.054,0.168 0.011,0.213 C 3.893,39.19 3.825,39.187 3.706,39.144 3.286,38.99 3.219,38.562 3.173,38.247 L 3.16,38.151 c -0.027,-0.139 0.045,-0.19 0.089,-0.204 0.148,-0.052 0.41,0.08 0.469,0.182 0.066,0.109 0.429,0.207 0.697,0.281 l 0.102,0.027 c 0.121,0.036 0.186,0.08 0.196,0.146 0.011,0.083 -0.081,0.16 -0.166,0.207 C 4.472,38.837 4.36,38.806 4.239,38.77 4.124,38.736 3.997,38.704 3.915,38.74 3.87,38.76 3.887,38.836 3.921,38.939 M 3.405,40.95 C 3.329,40.895 3.295,40.82 3.317,40.744 l 0.016,-0.063 c 0.02,-0.075 0.028,-0.089 0.095,-0.098 l 0.123,-0.021 c 0.162,-0.041 0.412,0.057 0.469,0.184 0.019,0.041 0.034,0.121 -0.075,0.196 -0.184,0.123 -0.415,0.098 -0.54,0.008 m -0.197,0.575 0.166,-0.086 c 0.027,-0.059 0.075,-0.098 0.139,-0.115 0.069,-0.017 0.138,0.003 0.198,0.049 0.043,0.033 0.053,0.096 0.027,0.18 -0.046,0.134 -0.187,0.281 -0.337,0.281 -0.196,0 -0.373,-0.021 -0.373,-0.168 0,-0.08 0.093,-0.11 0.18,-0.141 m -3.409,-1.407 c 0.091,-0.035 0.228,-0.02 0.356,0.04 0.198,0.09 0.313,0.251 0.266,0.363 l -0.094,0.083 c -0.087,0.034 -0.224,0.019 -0.35,-0.04 -0.171,-0.075 -0.279,-0.199 -0.279,-0.308 0,-0.019 0.003,-0.04 0.013,-0.055 l 0.088,-0.083 z" id="path150" style="fill:#ffffff;fill-opacity:1;fill-rule:evenodd;stroke:none" inkscape:connector-curvature="0" /></g></g></svg>