<!DOCTYPE svg PUBLIC "-//W3C//DTD SVG 1.1//EN" "http://www.w3.org/Graphics/SVG/1.1/DTD/svg11.dtd"[]><svg xmlns="http://www.w3.org/2000/svg" version="1.1" width="400" height="400" style="shape-rendering:geometricPrecision; text-rendering:geometricPrecision; image-rendering:optimizeQuality; fill-rule:evenodd; clip-rule:evenodd" xmlns:xlink="http://www.w3.org/1999/xlink" viewBox="0 0 922 814"><g><path style="opacity:0.063" fill="#fdfefd" d="M -0.5,-0.5 C -0.166667,-0.5 0.166667,-0.5 0.5,-0.5C 0.31468,0.170143 -0.0186536,0.170143 -0.5,-0.5 Z" /></g><g><path style="opacity:1" fill="#ec1b3b" d="M 493.5,-0.5 C 506.833,-0.5 520.167,-0.5 533.5,-0.5C 674.823,10.7147 783.99,75.3814 861,193.5C 898.036,254.77 918.203,321.103 921.5,392.5C 921.5,402.833 921.5,413.167 921.5,423.5C 911.54,561.967 849.54,670.134 735.5,748C 623.45,816.821 504.784,830.821 379.5,790C 271.001,749.838 192.168,677.338 143,572.5C 136.548,557.811 130.881,542.811 126,527.5C 125.535,526.069 124.701,524.903 123.5,524C 82.168,523.5 40.8347,523.333 -0.5,523.5C -0.5,522.5 -0.5,521.5 -0.5,520.5C 15.812,493.222 31.6453,465.555 47,437.5C 48.4578,435.04 50.2911,432.873 52.5,431C 70.7647,429.539 89.098,429.039 107.5,429.5C 103.493,301.077 147.826,192.91 240.5,105C 312.545,40.9139 396.879,5.74724 493.5,-0.5 Z M 495.5,92.5 C 578.846,89.5586 652.512,114.392 716.5,167C 724.512,173.679 731.846,181.012 738.5,189C 688.547,274.402 638.714,359.902 589,445.5C 582.083,436.623 572.917,431.789 561.5,431C 547.534,429.491 533.534,429.158 519.5,430C 518.213,431.41 517.046,432.91 516,434.5C 500.294,464.08 484.461,493.58 468.5,523C 484.5,523.333 500.5,523.667 516.5,524C 529.056,528.61 533.556,537.444 530,550.5C 516.036,577.091 501.536,603.424 486.5,629.5C 521.495,630.667 556.495,630.833 591.5,630C 592.667,628.833 593.833,627.667 595,626.5C 662.08,508.67 729.414,391.004 797,273.5C 804.825,285.827 810.491,299.16 814,313.5C 839.668,403.82 829.002,489.486 782,570.5C 724.45,658.055 643.283,707.555 538.5,719C 458.359,724.278 386.359,702.945 322.5,655C 313.359,647.693 304.693,639.86 296.5,631.5C 325.161,630.667 353.828,630.167 382.5,630C 467.88,480.744 552.88,331.244 637.5,181.5C 637.291,180.914 636.957,180.414 636.5,180C 601.5,179.333 566.5,179.333 531.5,180C 529.641,181.558 528.141,183.391 527,185.5C 480.546,266.912 433.712,348.078 386.5,429C 355.667,429.167 324.833,429.333 294,429.5C 262.787,429.496 231.787,428.83 201,427.5C 196.871,315.954 238.037,225.454 324.5,156C 375.408,118.529 432.408,97.3627 495.5,92.5 Z M 223.5,524.5 C 259.337,524.168 295.004,524.502 330.5,525.5C 313.345,555.139 296.178,584.806 279,614.5C 255.7,587.587 237.2,557.587 223.5,524.5 Z" /></g><g><path style="opacity:0.188" fill="#fdfefd" d="M 920.5,-0.5 C 920.833,-0.5 921.167,-0.5 921.5,-0.5C 921.5,-0.166667 921.5,0.166667 921.5,0.5C 921.167,0.166667 920.833,-0.166667 920.5,-0.5 Z" /></g><g><path style="opacity:1" fill="#f48b9c" d="M 223.5,524.5 C 259.336,523.17 295.336,523.17 331.5,524.5C 331.376,525.107 331.043,525.44 330.5,525.5C 295.004,524.502 259.337,524.168 223.5,524.5 Z" /></g><g><path style="opacity:0.188" fill="#fdfefd" d="M -0.5,812.5 C 0.166667,812.5 0.5,812.833 0.5,813.5C 0.166667,813.167 -0.166667,812.833 -0.5,812.5 Z" /></g></svg>