<svg xmlns="http://www.w3.org/2000/svg" width="400" height="400" viewBox="0 0 200 200"><defs><clipPath id="b"><path fill="none" d="M0 0h200v200H0z" /></clipPath><clipPath id="a"><path d="M0 0h200v200H0z" /></clipPath></defs><g clip-path="url(#a)"><g clip-path="url(#b)"><path fill="#231f20" d="M198.231 100A98.232 98.232 0 1 1 100 1.768 98.23 98.23 0 0 1 198.232 100" /><path fill="#00e701" d="M100 200.001A100.026 100.026 0 0 1 61.075 7.859a100.026 100.026 0 0 1 77.85 184.282 99.4 99.4 0 0 1-38.925 7.86m0-196.464a96.464 96.464 0 1 0 96.463 96.464A96.573 96.573 0 0 0 100 3.537" /><path fill="#fff" d="M63.72 151.491a2.78 2.78 0 0 0-2.006.708 2.26 2.26 0 0 0-.736 1.688 1.9 1.9 0 0 0 .462 1.427 11 11 0 0 0 2.54 1.374 7.15 7.15 0 0 1 2.843 1.946 4.94 4.94 0 0 1 .765 2.987 6.32 6.32 0 0 1-2.006 5.023 7.9 7.9 0 0 1-5.411 1.763 15 15 0 0 1-2.858-.291 18 18 0 0 1-2.337-.576l-.808-.318.663-2.858a31.4 31.4 0 0 0 5.123.576 4.6 4.6 0 0 0 2.729-.648 2.59 2.59 0 0 0 .865-2.207 1.63 1.63 0 0 0-.505-1.286 12.2 12.2 0 0 0-2.468-1.341 7.4 7.4 0 0 1-2.8-1.964 4.7 4.7 0 0 1-.837-2.972 6.26 6.26 0 0 1 1.819-4.621 6.55 6.55 0 0 1 4.849-1.817 16.3 16.3 0 0 1 2.9.276 19 19 0 0 1 2.324.534l.808.288-.721 2.828a34 34 0 0 0-5.2-.519M66.673 168.057l8.833-19.627h6.87l-.606 19.627h-3.984l.115-3.407h-5.716l-1.529 3.407Zm11.175-16.16-4.156 9.293h4.356l.4-9.293ZM87.941 161.391a8.6 8.6 0 0 0-.261 1.979 1.3 1.3 0 0 0 .592 1.227 4.43 4.43 0 0 0 2.078.345 2.94 2.94 0 0 0 2.237-.792 5.9 5.9 0 0 0 1.183-2.759l3-12.957h3.984l-3 12.957a9.8 9.8 0 0 1-2.727 5.356 7.32 7.32 0 0 1-5.008 1.661q-6.293 0-6.293-4.447a15 15 0 0 1 .375-3.2l2.858-12.325h3.984ZM110.239 148.434q5.137 0 5.138 4.243a5.45 5.45 0 0 1-.808 3.086 7.55 7.55 0 0 1-2.424 2.2 3.65 3.65 0 0 1 1.5 1.442 4.55 4.55 0 0 1 .375 1.964 6.33 6.33 0 0 1-2.006 4.792 8 8 0 0 1-5.729 1.9h-7.391l4.532-19.627Zm-2.194 11.4h-3.259l-1.126 4.819h3.4a2.62 2.62 0 0 0 2.08-.893 3.4 3.4 0 0 0 .778-2.309c0-1.08-.625-1.616-1.876-1.616m1.559-8h-2.973l-1.1 4.678h2.973a2.64 2.64 0 0 0 1.991-.852 3.04 3.04 0 0 0 .808-2.18 1.48 1.48 0 0 0-1.7-1.646M114.575 168.057l4.5-19.627h11.517l-.808 3.464h-7.499l-1.067 4.618h5.946l-.808 3.464h-5.918l-1.063 4.621h7.534l-.78 3.464ZM138.329 148.434a6.76 6.76 0 0 1 4.59 1.313 5.29 5.29 0 0 1 1.472 4.141 8.5 8.5 0 0 1-1.241 4.732 6.62 6.62 0 0 1-3.146 2.657l1.586 6.783h-3.982l-1.3-6.234h-2.741l-1.444 6.234h-3.984l4.532-19.627Zm1.054 8.744a4.54 4.54 0 0 0 .909-2.741 3.16 3.16 0 0 0-.49-2.051 2.2 2.2 0 0 0-1.7-.549h-2.227l-1.531 6.582h2.57a2.9 2.9 0 0 0 2.468-1.242" /><path fill="#00e701" fill-rule="evenodd" d="M55.687 34.557h33.369v22.246h11.123V45.68H111.3V34.557h33.37v33.369h-11.123v11.123h-11.123v11.123h11.123v11.125h11.123v33.368H111.3V123.54h-11.122v-11.123H89.055v22.246H55.687Z" /></g></g></svg>