<!DOCTYPE svg PUBLIC "-//W3C//DTD SVG 1.1//EN" "http://www.w3.org/Graphics/SVG/1.1/DTD/svg11.dtd"[]><svg xmlns="http://www.w3.org/2000/svg" version="1.1" width="400" height="400" style="shape-rendering:geometricPrecision; text-rendering:geometricPrecision; image-rendering:optimizeQuality; fill-rule:evenodd; clip-rule:evenodd" xmlns:xlink="http://www.w3.org/1999/xlink" viewBox="0 0 1000 548"><g><path style="opacity:0.992" fill="#ff8000" d="M 812.5,-0.5 C 829.833,-0.5 847.167,-0.5 864.5,-0.5C 893.266,0.796087 921.266,6.29609 948.5,16C 965.199,22.6953 979.032,33.1953 990,47.5C 994.279,55.1909 997.446,63.1909 999.5,71.5C 999.5,80.5 999.5,89.5 999.5,98.5C 993.817,122.361 984.317,144.694 971,165.5C 954.573,190.268 936.24,213.602 916,235.5C 862.43,290.903 804.93,342.07 743.5,389C 670.318,444.028 595.652,496.862 519.5,547.5C 518.5,547.5 517.5,547.5 516.5,547.5C 542.311,515.181 565.144,480.848 585,444.5C 598.301,419.265 607.634,392.599 613,364.5C 619.561,309.78 597.728,271.28 547.5,249C 516.459,236.101 484.125,228.434 450.5,226C 385.548,221.677 320.881,224.344 256.5,234C 181.348,244.895 107.681,261.895 35.5,285C 23.4376,289.409 11.4376,293.909 -0.5,298.5C -0.5,297.833 -0.5,297.167 -0.5,296.5C 166.576,191.154 345.243,109.654 535.5,52C 597.227,33.7202 659.894,19.3869 723.5,9C 753.212,4.8316 782.879,1.66493 812.5,-0.5 Z" /></g></svg>