<svg xmlns="http://www.w3.org/2000/svg" id="Layer_1" viewBox="0 0 182.09 151.3" height="400" width="400"><defs fill="#ffffff"><style>.cls-1{fill:#162fc5;}</style></defs><path class="cls-1" d="M8.49,139.64c.31.26.72.56,1.39.56.36,0,.77-.1,1.13-.31,2.11-1.03,4.26-4.93,4.31-5.14.21-.62-.51-1.18-1.39-1.9l-.1-.1c-.41-.31-1.13-.26-1.59.05-.36.21-.67.46-1.03.67-1.08.72-2.21,1.44-3.39,2.47-.41.36-.67,1.03-.72,1.54-.05.41.05.77.21.98.15.1.98,1.03,1.18,1.18M159.68,110.01c-.26-1.18-1.28-3.13-2.21-4.11-.92-.98-1.23-1.49-1.54-2-.31-.51-.05-.36-1.18-1.75-.98-1.18-1.85-1.08-2.11-1.08,0,0-1.03-.05-1.8,1.08-.31.41-1.03,2.16-1.03,2.16-.36.87-.67,1.13-.98,2.41-.31,1.23-.21,1.75-.05,2.41.1.67.46.72.72.56.26-.15.26-.31,1.08-1.39.72-.92,1.64-1.49,2-1.49,1.44-.15,3.9,3.08,4.42,4.21.46,1.03.56,3.49.56,3.49,0,.1-.05,1.03.72,1.03.67,0,.92-.51,1.03-.72.1-.21.36-.67.51-1.59.1-1.03.15-2.05-.15-3.24M152.6,126.49c-.72-.36-1.49-.1-1.49-.1-2.36.62-3.54,3.08-3.7,3.34,0,0-.36.67-.15,1.03.21.31.56.46,1.59.51,1.03.05,2.93-.21,3.44-.72.51-.46.67-1.64.67-1.64,0-.21.36-2.05-.36-2.41M127.28,79.29c-.77-1.54-1.54-2.52-2.31-2.88-.21-.1-.46-.15-.72-.15-.51,0-1.03.21-1.18.51-.67,1.08-.05,1.85.62,2.77.31.46.67.92.98,1.54.92,1.85,1.39,3.85,2.16,7.86.05.36.31.41.36.41.21,0,.36-.21.46-.46.05-.05,1.59-5.65-.36-9.6M182.07,134.45c-.05.36-.31.62-.72.67-.46.1-.92.15-1.44.15-3.75,0-7.7-2.98-9.24-5.75-2.05-3.75-3.75-5.96-6.78-7.04.31.62.67,1.18,1.08,1.75.26.31.46.67.67.98.98,1.64,2.36,4.06,3.08,6.47.67,2.26,3.08,3.95,5.29,5.34l2.77,1.49c.56.26.87.67.82,1.03-.05.31-.15.56-.67.72l-.51.05h-.56c-4.98,0-8.99-1.69-12.22-5.19-.98-1.08-1.95-1.64-2.93-1.64-2.21,1.95-4.47,3.9-7.5,4.11-3.75-.62-6.88-.41-9.24.62-.41.15-.77.26-1.18.41-2.16.77-4.37,1.59-6.83,1.69-1.34,0-3.03-.67-3.49-2-.15-.56-.1-1.08-.31-1.75-.31-1.18-.56-2.41.1-3.54l1.85-2.77c0-.26-.21-.46-.46-.51-.26-.05-.56.1-.87.21-.31.1-.56.26-.82.26-.82-.05-.77-.82-.77-.82.1-2.16,1.85-3.85,3.49-5.34.46-.41.92-.82,1.34-1.28.46-2.36,1.39-4.31,2.88-6.01-.05-.15-.15-.31-.36-.41-.56.1-1.13.21-1.69.31-1.8.36-3.65.67-5.6.67-2.57,1.34-6.11,1.75-7.09,1.08,0,0-.41-.31-.46-.67-.05-.36.05-.77.15-.98,2.52-3.49,3.49-7.91,2.77-12.12-.05-.36-.21-.46-.41-.46-.31,0-.41.36-.46.56-.77,4.42-2,7.65-4.01,10.73-.67,1.03-2.52,1.44-4.31,1.8-.77.15-1.44.26-2.21.56-.41.15-.98.56-.98,1.18-.05,1.28.62,2.41,1.28,3.44l.1.1c.15.31,4.42,7.29,4.57,8.73.15,1.23-.41,5.03-.92,6.62-.15.56.1.62.15.62.1,0,.26-.05.46-.21.72-.51,3.24-4.37,3.44-5.55.21-1.18-.15-1.95-.51-2.72l-5.03-9.96.05-.1c.26-.51.92-.82,1.85-.87h.1c.82,0,1.54.26,2.21.56.31.1.67.26.98.36h.1l.05.1c1.13,3.03,1.64,4.21,4.42,8.68.92,1.49.92,3.39,0,5.29-1.03,2.16-2.26,4.21-3.65,6.21-1.13,1.18-2.67,1.28-4.16,1.39-.31,0-.67.05-.98.1h-1.44c-4.37,2.31-8.94,3.85-13.66,5.34-.67.21-1.34.31-2.05.31-1.64,0-3.18-.56-4.26-1.49-1.18-.92-1.9-2.21-2.57-3.44-.26-.51-.56-1.03-.87-1.49-.36-.46-.98-.67-1.85-.67-.31,0-.62,0-.87.05-.26,0-.51.05-.77.05-.41,0-.98-.05-1.23-.46l-.46-.77c-1.03-1.75-2.05-3.44-3.08-5.24-.26-.41-.26-.92-.1-1.28.15-.36.46-.56.87-.67,1.95-.41,3.65-.77,5.44-.92,1.85-.15,3.24.31,4.31,1.54.82.92,1.44,2,2.05,3.03,1.13,1.9.92,2.47,2.72,4.11.05.05,1.03.77,2.16.87,1.69.1,4.57-1.03,6.37-1.9,1.13-.67,2.67-1.8,2.67-3.39-.21-3.49-2.82-6.01-4.98-7.55-3.39-1.75-6.11-3.9-7.86-6.11-.82-1.13-1.23-2.52-1.59-3.8-.1-.31-.15-.62-.26-.92-.05-.21-.26-.26-.41-.26s-.36.05-.46.15c-.87.77-.36,2.36,0,3.44.05.15.1.31.15.46l.05.15c.26.82.41,1.44-.1,1.9-.77.62-1.8.92-3.24.92-.62,0-1.23-.05-1.85-.1-.36-.05-.67-.05-.98-.05-1.75-.1-3.44-.41-5.03-.77-1.85-.36-3.8-.77-5.8-.77-.46,0-.87,0-1.28.05-1.03.05-2.21.26-3.44.41-1.59.26-3.29.51-4.78.51-2.52,0-4.11-.77-4.83-2.36-1.59-4.01-.77-8.78-.1-12.27,0-.36-.46-.51-.67-.56-.1-.05-.15-.05-.21-.05-.21,0-.41.1-.51.36-.46,1.69-.72,3.49-.98,5.29-.31,2.21-.67,4.52-1.39,6.68-1.08,3.29-3.8,7.45-7.5,9.3-2.88,1.49-6.16,2.26-10.73,2.57-6.16.1-13.76,1.03-18.23,7.4-.31.56-.36.72-.46,1.18-.05.21-.05.41.05.51.15.21.46.15.67-.05,4.21-4.72,9.96-7.14,17.1-7.14h1.18c5.75,0,12.94-.77,17.36-6.78,1.08-1.23,2.72-3.95,2.72-3.95l.1-.15,2.52,1.9-.05.1c0,.05-1.08,2.77-1.75,4.01-.67,1.34-2.52,4.62-4.62,5.8-.51.26-1.13.62-1.8.98-1.23.62-2.72,1.44-4.21,2.26-1.23.72-2.77,1.08-4.37,1.08-.92,0-1.85-.1-2.77-.36-1.69-.31-3.85-.72-5.85-.72-1.64,0-2.93.26-4.06.77-.87.56-1.75,1.34-2.57,2.11-.51.51-1.08.98-1.59,1.44-1.23.98-3.8,2.67-6.47,2.52-.56-.05-1.13-.21-1.64-.31-.62-.15-1.23-.31-1.8-.31-.67,0-1.13.21-1.54.67-.72.67-1.23,1.54-1.69,2.41-.77,1.28-1.54,2.62-2.98,3.29-.82.46-1.75.67-2.82.67s-2.31-.26-3.39-.51c-.87-.21-1.64-.36-2.47-.41h-.21l.05-.31c.05-.36.15-.67.21-1.03.46-2.26.98-4.57,2.47-6.32l.05-.05h.05c.98-.1,2-.31,2.82-1.03,1.03-.92,1.85-2.11,2.62-3.39l.05-.05c.46-.31.98-.56,1.44-.87,1.95-1.13,3.95-2.31,5.19-4.26.41-.92.87-2,1.28-3.03.67-1.75,1.28-3.24,1.8-3.8.31-.31.62-.46,1.08-.51.21,0,.51-.05.98-.05.87-.05,2.11-.1,3.24-.26.72-.1,4.52-1.44,6.42-3.18.51-.51.77-1.39.51-2.16-.05-.26-.26-.72-.51-1.28-.56-1.39-1.44-3.54-1.8-5.29-.15-.77-.26-2.67-.31-4.62-.05-1.23-.1-2.47-.21-3.59-.05-.56-.26-.56-.36-.56-.05,0-.15,0-.26.05-2.47.62-5.03,1.28-7.75,1.28-.87,0-1.64-.05-2.47-.21-4.57-.56-10.07-3.59-12.07-8.94-1.54-4.06-1.39-10.32,1.95-13.97,2.52-3.08,5.55-5.6,8.53-8.06.56-.46,1.18-.98,1.75-1.44.62-.51.87-.87.82-1.39-.1-.82-.77-1.49-1.44-1.69-.72-.21-1.54-.21-2.21-.21h-1.44c-1.08,0-2.21-.05-3.34-.51-.15-.05-.31-.1-.46-.15-3.44-1.59-6.57-5.44-7.04-9.19-.1-1.8.21-3.39,1.13-4.83,2.47,1.34,4.62,3.49,7.45,4.26,1.08.26,2.16.41,3.29.67.15.05.46.05.67.1l.31.05c1.75.41,6.47,1.59,8.58,3.9,2.11,2.31,2.31,6.57.46,9.09-1.59,2.16-3.95,4.16-6.42,6.21-1.54,1.28-3.08,2.62-4.47,4.01-2.93,2.93-4.01,6.68-2.98,10.37,1.08,3.29,4.37,5.75,7.96,6.01h.36c4.83,0,8.58-2.21,12.53-4.52.36-.21.77-.46,1.08-.67.67-.41,2.05-1.49,3.13-2.31,3.18-2.52,6.98-5.44,10.53-6.27,2.36-.56,2.77-.56,5.24-.82,1.75-.15,3.39-.36,4.88-.87,3.29-1.13,6.16-3.59,8.99-6.16,3.6-2.93,7.09-4.16,11.97-4.16,2.11,0,2.41-.26,4.98-2.67.56-.51,1.23-1.13,2.05-1.9,2.77-2.57,6.32-3.65,9.76-4.72,1.75-.56,3.54-1.08,5.24-1.85,2.16-.72,4.16-2,6.06-3.24,1.13-.72,2.31-1.49,3.49-2.11,1.75-.77,3.85-1.18,6.01-1.18,1.69,0,3.34.26,4.72.77,2.16.77,3.08,1.18,6.06,3.24l15.05,12.48.21.21c.26.26.62.56.87.87.46.46,8.83,10.22,12.33,15.92,1.13,1.9,2.05,4.83,2.16,6.21.67,8.78,3.34,16.69,5.8,23.37.1.26.62.72,1.18,1.23.67.56,1.39,1.23,1.85,1.9.67.92,1.28,1.95,1.85,2.93,1.49,2.52,3.08,5.14,5.75,6.68,0,0,1.23.62,2.26,1.13.36.26.41.51.36.82M4.38,139.74c-.05,0-.15,0-.21.05-1.13.46-2.41,1.9-2.47,2.77-.26,3.75-.41,4.16-1.39,5.29-.31.31-.46,1.08-.15,1.39.31.31,3.95,1.44,4.37,1.44h.1c.31-.1.62-.92,1.34-3.54.41-1.39.87-2.98,1.39-4.42.05-.1.05-.21-.31-.72-.41-.62-1.85-2.26-2.67-2.26M101.44,135.48c.56,1.23,1.08,2.36,1.64,2.52.26.05.51.1.82.1,1.28,0,3.13-.72,4.42-1.75.72-.62.51-1.03.15-1.59-.1-.15-.21-.36-.36-.62-.36-.67-.56-1.39-.72-2-.36-1.28-.67-2.36-2-2.16-1.95.26-3.8.41-5.91.41-.05,0-.67,0-.87.46-.26.51.31,1.03.87,1.54.31.31.67.62.87.92.31.56.72,1.39,1.08,2.16M112.74,52.33l.21-.1.26-.1c2.52-1.08,5.44-1.64,8.47-1.64,2.21,0,4.42.36,6.32.98V16.95h13.15c5.75,0,10.43,5.29,10.43,11.04s-4.67,10.43-10.43,10.43h-6.83v15.97c.51.36,1.08.72,1.75,1.18l.21.15.51.41h10.12c6.98,0,12.27,5.65,12.27,12.63-.1,2.41-.67,4.57-1.64,6.42,2.93,3.54,6.57,8.27,8.73,11.76l.1.15c.92,1.59,1.8,3.7,2.36,5.6,7.24-5.19,11.91-13.3,11.91-22.39,0-11.25-3.95-19.21-17.2-25.37,5.39-5.03,8.68-11.76,8.68-19.16,0-6.73-2.57-12.89-7.09-17.72-4.67-5.19-12.99-8.06-24.24-8.06h-33.79v55.82c.56-.36,1.18-.72,1.8-1.13,1.23-.77,2.52-1.64,3.95-2.36M35.09,90.18c-.41.26-.82.46-1.23.72v-11.04c.87-.87,1.64-1.8,2.36-2.72,3.65-4.88,3.24-12.48-.82-16.95-.46-.51-.98-.98-1.54-1.44V0h36c16.38,0,29.68,13.04,29.68,29.12,0,13.71-9.6,25.16-22.6,28.3l7.24,10.27c-.15.15-.31.26-.41.41-6.11.05-10.94,1.8-15.56,5.55l-.15.1-.1.1c-.62.56-1.18,1.08-1.8,1.59l-5.91-9.14v-23.57h4.88c7.75,0,14.02-5.75,14.02-12.89s-5.85-12.89-13.61-12.89h-10.68v62.65c-.92.15-1.8.31-3.24.67-4.93,1.13-9.4,4.62-12.99,7.4-1.95,1.54-2.52,1.9-2.67,2-.31.15-.62.36-.87.51" fill="#ffffff"/></svg>