<!DOCTYPE svg PUBLIC "-//W3C//DTD SVG 1.1//EN" "http://www.w3.org/Graphics/SVG/1.1/DTD/svg11.dtd"[]><svg xmlns="http://www.w3.org/2000/svg" version="1.1" width="400" height="400" style="shape-rendering:geometricPrecision; text-rendering:geometricPrecision; image-rendering:optimizeQuality; fill-rule:evenodd; clip-rule:evenodd" xmlns:xlink="http://www.w3.org/1999/xlink" viewBox="0 0 3356 2543"><g><path style="opacity:0.063" fill="#fdfefd" d="M 0.5,-0.5 C 0.833333,-0.5 1.16667,-0.5 1.5,-0.5C 1.31468,0.170143 0.981346,0.170143 0.5,-0.5 Z" /></g><g><path style="opacity:1" fill="#1b315d" d="M 1683.5,-0.5 C 1684.83,-0.5 1686.17,-0.5 1687.5,-0.5C 1688.33,3.1249 1689.16,6.79157 1690,10.5C 1695,19.8333 1700,29.1667 1705,38.5C 2016.61,680.711 2327.94,1323.04 2639,1965.5C 2640.79,1974.57 2639.46,1983.24 2635,1991.5C 2557.19,2173.95 2479.19,2356.28 2401,2538.5C 2160.08,2031.65 1919.41,1524.65 1679,1017.5C 1447.26,1524.65 1215.26,2031.65 983,2538.5C 894.864,2353.89 807.53,2168.89 721,1983.5C 718.684,1973.96 719.351,1964.63 723,1955.5C 1015.88,1362.41 1308.21,769.08 1600,175.5C 1627.14,118.557 1654.8,61.8904 1683,5.5C 1683.5,3.5273 1683.66,1.5273 1683.5,-0.5 Z" /></g><g><path style="opacity:0.345" fill="#fdfefd" d="M 3344.5,-0.5 C 3345.17,-0.5 3345.83,-0.5 3346.5,-0.5C 3345.83,0.833333 3345.17,0.833333 3344.5,-0.5 Z" /></g><g><path style="opacity:0.251" fill="#fdfefd" d="M 3348.5,0.5 C 3349.83,1.16667 3349.83,1.16667 3348.5,0.5 Z" /></g><g><path style="opacity:0.376" fill="#fdfefd" d="M -0.5,1.5 C 0.833333,2.16667 0.833333,2.16667 -0.5,1.5 Z" /></g><g><path style="opacity:0.063" fill="#fdfefd" d="M 3351.5,2.5 C 3350.83,1.16667 3350.83,1.16667 3351.5,2.5 Z" /></g><g><path style="opacity:0.188" fill="#fdfefd" d="M 3351.5,2.5 C 3352.17,2.5 3352.5,2.83333 3352.5,3.5C 3352.17,3.16667 3351.83,2.83333 3351.5,2.5 Z" /></g><g><path style="opacity:0.063" fill="#fdfefd" d="M 3352.5,3.5 C 3353.83,4.16667 3353.83,4.16667 3352.5,3.5 Z" /></g><g><path style="opacity:0.251" fill="#fdfefd" d="M 3353.5,5.5 C 3354.53,5.89657 3354.69,6.56323 3354,7.5C 3353.54,6.90558 3353.37,6.23891 3353.5,5.5 Z" /></g><g><path style="opacity:0.345" fill="#fdfefd" d="M 3355.5,9.5 C 3355.5,10.1667 3355.5,10.8333 3355.5,11.5C 3354.17,10.8333 3354.17,10.1667 3355.5,9.5 Z" /></g><g><path style="opacity:1" fill="#1b315d" d="M 2771.5,32.5 C 2964.83,32.8077 3158.17,33.4744 3351.5,34.5C 3136.77,619.872 2921.93,1205.21 2707,1790.5C 2600.33,1581.83 2493.67,1373.17 2387,1164.5C 2381.65,1155.98 2378.15,1146.82 2376.5,1137C 2376.84,1131.98 2378.01,1127.15 2380,1122.5C 2507.47,761.08 2635.14,399.747 2763,38.5C 2765.23,35.399 2768.07,33.399 2771.5,32.5 Z" /></g><g><path style="opacity:1" fill="#1c315d" d="M -0.5,75.5 C -0.5,72.5 -0.5,69.5 -0.5,66.5C 163.502,66.457 327.502,66.6237 491.5,67C 501.323,66.0463 511.157,65.213 521,64.5C 538.296,63.4692 550.296,70.8025 557,86.5C 561,99.8333 565,113.167 569,126.5C 694.137,458.911 819.47,791.244 945,1123.5C 948.332,1132.84 948.332,1142.17 945,1151.5C 839.224,1364.19 734.224,1577.19 630,1790.5C 546.47,1563.58 463.137,1336.58 380,1109.5C 255.197,766.09 130.197,422.757 5,79.5C 4.12526,76.7854 2.29192,75.4521 -0.5,75.5 Z" /></g><g><path style="opacity:0.345" fill="#fdfefd" d="M 3355.5,2531.5 C 3355.5,2532.17 3355.5,2532.83 3355.5,2533.5C 3354.17,2532.83 3354.17,2532.17 3355.5,2531.5 Z" /></g><g><path style="opacity:0.251" fill="#fdfefd" d="M -0.5,2533.5 C 0.833333,2534.17 0.833333,2534.17 -0.5,2533.5 Z" /></g><g><path style="opacity:0.251" fill="#fdfefd" d="M 3353.5,2537.5 C 3353.37,2536.76 3353.54,2536.09 3354,2535.5C 3354.69,2536.44 3354.53,2537.1 3353.5,2537.5 Z" /></g><g><path style="opacity:0.125" fill="#fdfefd" d="M 1.5,2537.5 C 0.833333,2536.17 0.833333,2536.17 1.5,2537.5 Z" /></g><g><path style="opacity:0.439" fill="#fdfefd" d="M 1.5,2537.5 C 2.83333,2538.17 2.83333,2538.17 1.5,2537.5 Z" /></g><g><path style="opacity:0.439" fill="#fdfefd" d="M 3353.5,2537.5 C 3352.83,2538.17 3352.83,2538.17 3353.5,2537.5 Z" /></g><g><path style="opacity:0.439" fill="#fdfefd" d="M 4.5,2540.5 C 3.83333,2539.17 3.83333,2539.17 4.5,2540.5 Z" /></g><g><path style="opacity:0.125" fill="#fdfefd" d="M 4.5,2540.5 C 5.83333,2541.17 5.83333,2541.17 4.5,2540.5 Z" /></g><g><path style="opacity:0.251" fill="#fdfefd" d="M 3349.5,2540.5 C 3350.83,2541.17 3350.83,2541.17 3349.5,2540.5 Z" /></g><g><path style="opacity:0.251" fill="#fdfefd" d="M 8.5,2542.5 C 7.83333,2541.17 7.83333,2541.17 8.5,2542.5 Z" /></g><g><path style="opacity:0.188" fill="#fdfefd" d="M 3346.5,2542.5 C 3347.17,2541.17 3347.83,2541.17 3348.5,2542.5C 3347.83,2542.5 3347.17,2542.5 3346.5,2542.5 Z" /></g></svg>