<svg width="70" height="70" viewBox="0 0 70 70" fill="none" xmlns="http://www.w3.org/2000/svg">
	<path
		d="M30.0123 11.2583L5.30809 52.5C4.79875 53.3821 4.52924 54.3821 4.52639 55.4007C4.52354 56.4192 4.78744 57.4208 5.29183 58.3057C5.79623 59.1906 6.52354 59.928 7.4014 60.4446C8.27927 60.9611 9.27709 61.2388 10.2956 61.25H59.7039C60.7224 61.2388 61.7202 60.9611 62.5981 60.4446C63.476 59.928 64.2033 59.1906 64.7077 58.3057C65.2121 57.4208 65.476 56.4192 65.4731 55.4007C65.4703 54.3821 65.2008 53.3821 64.6914 52.5L39.9873 11.2583C39.4673 10.4011 38.7352 9.69242 37.8616 9.20056C36.988 8.70871 36.0023 8.45032 34.9998 8.45032C33.9972 8.45032 33.0116 8.70871 32.1379 9.20056C31.2643 9.69242 30.5322 10.4011 30.0123 11.2583Z"
		stroke="#EAB308" stroke-width="5" stroke-linecap="round" stroke-linejoin="round" />
	<path d="M35 26.25V37.9167" stroke="#EAB308" stroke-width="5" stroke-linecap="round" stroke-linejoin="round" />
	<path d="M35 49.5834H35.0296" stroke="#EAB308" stroke-width="5" stroke-linecap="round" stroke-linejoin="round" />
</svg>