<svg width="23" height="23" viewBox="0 0 23 23" fill="none" xmlns="http://www.w3.org/2000/svg">
<g clip-path="url(#clip0_490_1111)">
<path d="M15.117 22.2197L18.0076 17.2197C18.1736 16.9267 18.0857 16.5752 17.7928 16.4287C17.5096 16.2724 17.1678 16.3408 17.0018 16.6435L14.1307 21.624C13.9549 21.917 14.0428 22.2588 14.326 22.4345C14.5994 22.6006 14.9607 22.5029 15.117 22.2197Z" fill="#5AC8F5"/>
<path d="M11.2599 22.2099L14.1212 17.2392C14.297 16.9267 14.2091 16.5947 13.9161 16.4287C13.6134 16.2529 13.2813 16.3408 13.1056 16.6533L10.2345 21.6435C10.0782 21.917 10.1466 22.2588 10.4493 22.4345C10.7423 22.6006 11.0939 22.5029 11.2599 22.2099Z" fill="#5AC8F5"/>
<path d="M7.37311 22.2099L10.2345 17.2392C10.4103 16.9267 10.3224 16.5947 10.0294 16.4287C9.72662 16.2529 9.39459 16.3408 9.21881 16.6533L6.34772 21.6435C6.19147 21.917 6.25983 22.2588 6.56256 22.4345C6.85553 22.6006 7.20709 22.5029 7.37311 22.2099Z" fill="#5AC8F5"/>
<path d="M3.47632 22.2099L6.34742 17.2392C6.5232 16.9267 6.42554 16.5947 6.13257 16.4287C5.8396 16.2529 5.50757 16.3408 5.33179 16.6533L2.45093 21.6435C2.29468 21.917 2.37281 22.2588 2.66578 22.4345C2.95874 22.6006 3.31031 22.5029 3.47632 22.2099Z" fill="#5AC8F5"/>
<path d="M5.22461 14.8662H17.3438C20.5469 14.8662 22.9297 12.4345 22.9297 9.42673C22.9297 6.31149 20.3906 4.0361 17.0801 4.0361C15.8594 1.62399 13.5938 0.0712585 10.7715 0.0712585C7.09961 0.0712585 4.07227 2.95212 3.75 6.57516C1.98242 7.09274 0.634766 8.62594 0.634766 10.6865C0.634766 13.0009 2.31445 14.8662 5.22461 14.8662Z" fill="white"/>
</g>
<defs>
<clipPath id="clip0_490_1111">
<rect width="22.9297" height="22.5156" fill="white"/>
</clipPath>
</defs>
</svg>
