<svg width="23" height="23" viewBox="0 0 23 23" fill="none" xmlns="http://www.w3.org/2000/svg">
<g clip-path="url(#clip0_490_1061)">
<path d="M15.5172 22.2099L18.4078 17.2099C18.5738 16.917 18.4859 16.5849 18.2027 16.4189C17.9293 16.2431 17.5777 16.331 17.4019 16.6338L14.5308 21.6142C14.3648 21.9072 14.4527 22.249 14.7359 22.4248C15.0191 22.5908 15.3512 22.5029 15.5172 22.2099Z" fill="white" fill-opacity="0.5"/>
<path d="M13.2515 19.4267L14.521 17.2197C14.6968 16.9267 14.5991 16.5849 14.3061 16.4091C14.0132 16.2431 13.6811 16.331 13.5054 16.6338L12.2261 18.8603C12.06 19.1338 12.1382 19.4756 12.4409 19.6513C12.7339 19.8174 13.0854 19.7099 13.2515 19.4267Z" fill="white" fill-opacity="0.5"/>
<path d="M7.75383 22.2197L10.6347 17.2197C10.8007 16.9267 10.7226 16.5947 10.4394 16.4287C10.1561 16.2529 9.79484 16.3408 9.62883 16.6435L6.7675 21.624C6.60148 21.917 6.67961 22.2588 6.97258 22.4345C7.25578 22.6006 7.58781 22.5029 7.75383 22.2197Z" fill="white" fill-opacity="0.5"/>
<path d="M5.47834 19.4365L6.74787 17.2295C6.93341 16.9365 6.83576 16.5947 6.54279 16.4189C6.24982 16.2529 5.91779 16.3408 5.73224 16.6435L4.45294 18.8701C4.28693 19.1435 4.37482 19.4853 4.67755 19.6611C4.96076 19.8271 5.31232 19.7197 5.47834 19.4365Z" fill="white" fill-opacity="0.5"/>
<path d="M5.22461 14.8662H17.3438C20.5469 14.8662 22.9297 12.4345 22.9297 9.42673C22.9297 6.31149 20.3906 4.0361 17.0801 4.0361C15.8594 1.62399 13.5938 0.0712585 10.7715 0.0712585C7.09961 0.0712585 4.07227 2.95212 3.75 6.57516C1.98242 7.09274 0.634766 8.62594 0.634766 10.6865C0.634766 13.0009 2.31445 14.8662 5.22461 14.8662ZM5.20508 13.3037C3.20312 13.3037 2.19727 12.1806 2.19727 10.7353C2.19727 9.56344 2.88086 8.50876 4.54102 8.0693C5.07812 7.92282 5.27344 7.66891 5.32227 7.12204C5.54688 3.92868 7.93945 1.63376 10.7715 1.63376C12.9688 1.63376 14.6973 2.84469 15.752 5.0029C15.9766 5.48141 16.2695 5.64743 16.8457 5.64743C19.7363 5.64743 21.3672 7.38571 21.3672 9.46579C21.3672 11.5947 19.668 13.3037 17.4414 13.3037H5.20508Z" fill="white" fill-opacity="0.5"/>
</g>
<defs>
<clipPath id="clip0_490_1061">
<rect width="22.9297" height="22.5156" fill="white"/>
</clipPath>
</defs>
</svg>
