<svg width="42" height="42" viewBox="0 0 42 42" fill="none" xmlns="http://www.w3.org/2000/svg">
	<g clip-path="url(#clip0_207_20)">
		<path
			d="M20.9014 0.51709C9.35338 0.51709 0 9.8757 0 21.4185C0 30.6552 5.98825 38.488 14.2913 41.2487C15.3364 41.4455 15.7196 40.7993 15.7196 40.2437C15.7196 39.7473 15.7022 38.4322 15.6935 36.6905C9.8794 37.9515 8.65318 33.8862 8.65318 33.8862C7.70217 31.4738 6.3279 30.8294 6.3279 30.8294C4.43458 29.5335 6.47421 29.5596 6.47421 29.5596C8.57306 29.7059 9.67561 31.7124 9.67561 31.7124C11.5393 34.9086 14.5683 33.9855 15.7631 33.4507C15.9513 32.0991 16.4895 31.1777 17.0869 30.6552C12.445 30.1326 7.56631 28.3351 7.56631 20.3264C7.56631 18.0447 8.37624 16.181 9.71741 14.7179C9.48227 14.1901 8.77685 12.0651 9.9003 9.18595C9.9003 9.18595 11.6508 8.6251 15.6482 11.3283C17.3203 10.8633 19.0969 10.6334 20.8735 10.6229C22.6502 10.6334 24.4268 10.8633 26.0989 11.3283C30.0702 8.6251 31.8207 9.18595 31.8207 9.18595C32.9441 12.0651 32.2387 14.1901 32.0297 14.7179C33.3621 16.181 34.1721 18.0447 34.1721 20.3264C34.1721 28.356 29.2864 30.1239 24.6358 30.6378C25.3673 31.2648 26.0466 32.5468 26.0466 34.5045C26.0466 37.3018 26.0205 39.5487 26.0205 40.228C26.0205 40.7767 26.3863 41.4299 27.4575 41.2208C35.8198 38.4793 41.8028 30.6412 41.8028 21.4185C41.8028 9.8757 32.4442 0.51709 20.9014 0.51709Z"
			fill="#fff" />
	</g>
	<defs>
		<clipPath id="clip0_207_20">
			<rect width="41.8028" height="41.8028" fill="white" />
		</clipPath>
	</defs>
</svg>