<svg width="13" height="12" viewBox="0 0 13 12" fill="none" xmlns="http://www.w3.org/2000/svg">
	<g clip-path="url(#clip0_489_1022)">
		<path
			d="M7.22332 8.88742C6.03694 9.50831 4.98053 10.4771 3.44667 10.4771C2.79692 10.4771 2.20301 10.3048 1.62941 9.9379C1.35022 9.76562 1.34007 9.45993 1.4619 9.25982C1.56342 9.08753 1.77154 8.99857 1.98474 9.13198C2.5025 9.45993 2.94413 9.58218 3.44667 9.58218C4.96974 9.58218 6.02664 8.4733 7.37406 7.86926C7.28351 8.19123 7.22332 8.53437 7.22332 8.88742Z"
			fill="#037CFE" />
		<path
			d="M8.43368 5.46345C6.67152 5.80638 5.47838 7.4979 3.45155 7.4979C2.8018 7.4979 2.2079 7.32004 1.63429 6.9588C1.3551 6.78094 1.34495 6.48077 1.46678 6.28071C1.5683 6.10837 1.77642 6.01947 1.98962 6.15282C2.50739 6.47525 2.94901 6.60308 3.45155 6.60308C5.49704 6.60308 6.70167 4.60299 8.89775 4.51126L8.43368 5.46345Z"
			fill="#037CFE" />
		<path
			d="M10.8731 2.0565C11.1573 2.23992 11.1675 2.54006 11.0405 2.74015C10.934 2.90689 10.7309 2.99582 10.5177 2.86243C9.99997 2.54006 9.55325 2.41778 9.05581 2.41778C6.92891 2.41778 5.70557 4.51319 3.44667 4.51319C2.79692 4.51319 2.20301 4.34089 1.62941 3.97961C1.35022 3.80175 1.34007 3.50161 1.4619 3.30152C1.56342 3.12922 1.77154 3.04029 1.98474 3.17368C2.5025 3.49605 2.94413 3.61833 3.44667 3.61833C5.54313 3.61833 6.75628 1.52292 9.05581 1.52292C9.70555 1.52292 10.2995 1.69522 10.8731 2.0565Z"
			fill="#037CFE" />
		<path
			d="M10.1118 11.2385C11.3352 11.2385 12.3098 10.1936 12.3098 8.88743C12.3098 8.16489 11.9799 7.45903 11.7007 6.88652L10.5687 4.5799C10.4469 4.32978 10.3352 4.22418 10.1118 4.22418C9.88341 4.22418 9.7768 4.32978 9.65496 4.5799L8.52804 6.88652C8.24886 7.45903 7.91895 8.16489 7.91895 8.88743C7.91895 10.1936 8.89356 11.2385 10.1118 11.2385Z"
			fill="#037CFE" />
	</g>
	<defs>
		<clipPath id="clip0_489_1022">
			<rect width="13" height="12" fill="white" />
		</clipPath>
	</defs>
</svg>